<svg width="69" height="67" viewBox="0 0 69 67" fill="none" xmlns="http://www.w3.org/2000/svg">
<rect width="68.7179" height="67" rx="9" fill="white"/>
<g filter="url(#filter0_d_123_89)">
<path d="M56.1363 14.6605C55.3074 13.434 54.2374 12.3777 52.9873 11.552C51.7372 10.7263 50.3315 10.1474 48.8505 9.84817C47.3695 9.54898 45.8422 9.53543 44.3558 9.80831C42.8694 10.0812 41.453 10.6351 40.1875 11.4385L25.7345 20.6159C23.1787 22.2383 21.3926 24.7783 20.7691 27.677C20.1456 30.5758 20.7359 33.5958 22.41 36.0728C24.0841 38.5497 26.7049 40.2807 29.6959 40.885C32.6868 41.4892 35.803 40.9172 38.3588 39.2947L40.0697 38.2063C40.0697 38.2063 39.8057 36.3425 39.1898 35.4312C38.5744 34.5171 36.9142 33.5374 36.9142 33.5374L35.2033 34.6258C33.9251 35.4372 32.3668 35.7233 30.871 35.4211C29.3753 35.1189 28.0646 34.2533 27.2274 33.0146C26.3903 31.7759 26.0951 30.2656 26.4069 28.816C26.7187 27.3663 27.6119 26.0961 28.89 25.2847L43.3459 16.108C44.6239 15.297 46.182 15.0112 47.6775 15.3136C49.1729 15.616 50.4832 16.4817 51.32 17.7203C52.1568 18.959 52.4516 20.469 52.1396 21.9184C51.8276 23.3677 50.9344 24.6375 49.6563 25.4485L47.2476 26.9776C47.2476 26.9776 48.4422 28.1256 49.1289 29.1453C49.8213 30.1662 50.4031 31.6465 50.4031 31.6465L52.8118 30.1174C54.0774 29.3141 55.1673 28.277 56.0192 27.0655C56.8712 25.8539 57.4686 24.4916 57.7773 23.0563C58.086 21.621 58.1 20.1408 57.8185 18.7002C57.5369 17.2597 56.9653 15.887 56.1363 14.6605Z" fill="#FF5E3A"/>
<path d="M46.4196 30.8417C45.5907 29.6148 44.5206 28.5581 43.2703 27.7321C42.0199 26.9061 40.614 26.327 39.1326 26.0277C37.6513 25.7285 36.1236 25.715 34.6369 25.988C33.1502 26.2611 31.7336 26.8154 30.4679 27.6192L28.6242 28.792C28.6242 28.792 29.0271 30.584 29.6437 31.4926C30.2596 32.4039 31.7797 33.4609 31.7797 33.4609L33.6235 32.2881C34.2563 31.8863 34.9647 31.6093 35.708 31.4728C36.4513 31.3364 37.2151 31.3432 37.9557 31.4928C38.6963 31.6424 39.3993 31.9319 40.0245 32.3449C40.6496 32.7578 41.1848 33.286 41.5993 33.8993C42.0138 34.5127 42.2997 35.1991 42.4405 35.9195C42.5812 36.6399 42.5743 37.3802 42.4199 38.0979C42.2655 38.8157 41.9667 39.497 41.5407 40.1029C41.1146 40.7088 40.5696 41.2274 39.9368 41.6291L25.4809 50.8059C24.8481 51.2075 24.1398 51.4843 23.3966 51.6206C22.6534 51.7569 21.8897 51.75 21.1493 51.6003C19.6538 51.2979 18.3436 50.4322 17.5068 49.1936C16.67 47.9549 16.3751 46.4448 16.6871 44.9955C16.9991 43.5462 17.8924 42.2764 19.1704 41.4654L21.8245 39.7806C21.8245 39.7806 20.6173 38.5132 19.9986 37.6013C19.3855 36.6905 18.6661 35.1111 18.6661 35.1111L16.0149 36.7965C14.731 37.5916 13.6226 38.6257 12.754 39.8388C11.8853 41.0519 11.2735 42.42 10.9541 43.8638C10.6347 45.3076 10.6141 46.7985 10.8933 48.2501C11.1725 49.7018 11.7461 51.0853 12.5808 52.3206C13.4156 53.5559 14.4949 54.6184 15.7562 55.4467C17.0176 56.275 18.436 56.8525 19.9292 57.1459C21.4225 57.4392 22.961 57.4426 24.4556 57.1557C25.9502 56.8689 27.3712 56.2976 28.6364 55.4748L43.0923 46.298C44.3578 45.4947 45.4477 44.4577 46.2997 43.2461C47.1516 42.0345 47.7491 40.6722 48.0578 39.2369C48.3665 37.8016 48.3804 36.3214 48.0989 34.8808C47.8173 33.4403 47.2486 32.0682 46.4196 30.8417Z" fill="#FF5E3A"/>
</g>
<defs>
<filter id="filter0_d_123_89" x="6.69818" y="9.61325" width="55.3215" height="55.7552" filterUnits="userSpaceOnUse" color-interpolation-filters="sRGB">
<feFlood flood-opacity="0" result="BackgroundImageFix"/>
<feColorMatrix in="SourceAlpha" type="matrix" values="0 0 0 0 0 0 0 0 0 0 0 0 0 0 0 0 0 0 127 0" result="hardAlpha"/>
<feOffset dy="4"/>
<feGaussianBlur stdDeviation="2"/>
<feComposite in2="hardAlpha" operator="out"/>
<feColorMatrix type="matrix" values="0 0 0 0 0 0 0 0 0 0 0 0 0 0 0 0 0 0 0.25 0"/>
<feBlend mode="normal" in2="BackgroundImageFix" result="effect1_dropShadow_123_89"/>
<feBlend mode="normal" in="SourceGraphic" in2="effect1_dropShadow_123_89" result="shape"/>
</filter>
</defs>
</svg>
