<svg width="18" height="25" viewBox="0 0 18 25" fill="none" xmlns="http://www.w3.org/2000/svg">
<path fill-rule="evenodd" clip-rule="evenodd" d="M5.00127 0H12.9987C15.7557 0 18 2.18164 18 4.80075C18 6.33189 17.2322 7.71494 16.0428 8.59785C17.2322 9.4819 18 10.8638 18 12.3961C18 15.0141 15.7557 17.1957 12.9987 17.1957C11.8754 17.1957 10.8376 16.8346 10.0025 16.2285V19.9903C10.0025 22.6094 7.75937 24.791 5.00127 24.791C2.2443 24.791 0 22.6094 0 19.9903C0 18.4591 0.767834 17.0772 1.9572 16.1932C0.767834 15.3091 0 13.9272 0 12.3961C0 10.8638 0.767834 9.4819 1.9572 8.59785C0.767834 7.71494 0 6.33189 0 4.80075C0 2.18164 2.2443 0 5.00127 0ZM7.99746 17.1957H5.00127C3.37215 17.1957 2.00506 18.4432 2.00506 19.9903C2.00506 21.5385 3.37215 22.7848 5.00127 22.7848C6.63152 22.7848 7.99746 21.5385 7.99746 19.9903V17.1957ZM10.0025 12.3961C10.0025 10.8479 11.3685 9.60039 12.9987 9.60039C14.6278 9.60039 15.9949 10.8479 15.9949 12.3961C15.9949 13.9432 14.6278 15.1906 12.9987 15.1906C11.3685 15.1906 10.0025 13.9432 10.0025 12.3961ZM4.96367 9.60154C3.3505 9.61977 2.00506 10.8604 2.00506 12.3961C2.00506 13.9432 3.37215 15.1906 5.00127 15.1906H7.99746V9.60039H5.00127L4.96367 9.60154ZM7.99746 7.59531V2.00619H5.00127C3.37215 2.00619 2.00506 3.25252 2.00506 4.80075C2.00506 6.34898 3.37215 7.59531 5.00127 7.59531H7.99746ZM10.0025 7.59531H12.9987C14.6278 7.59531 15.9949 6.34898 15.9949 4.80075C15.9949 3.25252 14.6278 2.00619 12.9987 2.00619H10.0025V7.59531Z" fill="white"/>
</svg>
