<svg width="35" height="33" viewBox="0 0 35 33" fill="none" xmlns="http://www.w3.org/2000/svg">
<g filter="url(#filter0_d_6_98)">
<path fill-rule="evenodd" clip-rule="evenodd" d="M8.66732 21.203C9.41409 21.643 10.5009 22.2498 11.6611 22.7765C13.1546 23.4566 14.7682 24.01 16.0017 24.01C16.8685 24.01 18.1953 23.5766 19.7022 22.8765C23.0026 21.3363 27.2632 18.5359 29.2768 16.9557C29.9236 16.449 30.3503 16.0489 30.497 15.8355C30.637 15.6355 30.6704 15.4555 30.6704 15.3421C30.6704 14.7621 30.137 14.1286 29.6169 13.8686C28.7968 13.4619 28.23 13.3485 27.3432 13.3419C26.4498 13.3419 25.243 13.4552 24.4228 13.8686H24.4095C23.2693 14.482 21.6491 15.4955 20.6223 16.1556C20.5061 15.553 20.1836 15.0097 19.7102 14.6191C19.2369 14.2285 18.6423 14.015 18.0286 14.0153H16.6618C15.2349 12.5017 13.248 11.4016 11.181 11.4016C11.181 11.4016 9.59411 11.3749 8.66732 11.3616V10.6815C8.66732 10.3148 8.36727 10.0147 8.00056 10.0147H4.66676C4.30004 10.0147 4 10.3148 4 10.6815V21.363C4 21.7297 4.30004 22.0297 4.66676 22.0297H8.00056C8.36727 22.0297 8.66732 21.7297 8.66732 21.363V21.2096V21.203ZM19.3355 16.6823V16.6557C19.3355 15.9356 18.7487 15.3488 18.0286 15.3488H16.3684C16.2736 15.3496 16.1797 15.3297 16.0934 15.2905C16.007 15.2514 15.9302 15.1939 15.8683 15.1221C14.6815 13.7753 12.9746 12.7284 11.181 12.7351L8.66732 12.6951V19.6494C9.26073 20.0228 10.6676 20.8629 12.2145 21.5697C13.5213 22.1698 14.9215 22.6832 16.0017 22.6832C16.7351 22.6832 17.8553 22.2698 19.1354 21.6697C22.3492 20.1695 26.4965 17.4424 28.4567 15.9089C28.7701 15.6689 29.0635 15.3955 29.2435 15.2288C29.1768 15.1555 29.0968 15.0954 29.0168 15.0621C28.4101 14.7621 27.99 14.6821 27.3299 14.6821C26.6298 14.6821 25.6763 14.7421 25.0229 15.0621C23.2693 15.9956 20.3623 17.9025 20.3623 17.9025C20.2556 17.9758 20.1289 18.0092 20.0022 18.0092L13.2079 18.0492C12.8412 18.0492 12.5412 17.7558 12.5345 17.3891C12.5345 17.0224 12.8279 16.7223 13.1946 16.7157L19.3288 16.6823H19.3355ZM7.3338 11.3416V20.6896H5.33352V11.3416H7.3338ZM21.8225 10.3615C22.5826 11.3283 23.496 12.1684 24.3562 12.6018C24.5429 12.6951 24.7629 12.6951 24.9496 12.6018C26.3164 11.9417 27.63 10.4481 28.4501 8.96793C29.0168 7.94112 29.3435 6.92764 29.3435 6.20087C29.3302 4.61399 28.0767 3.33381 26.5698 3.33381C26.2564 3.33381 25.9564 3.38715 25.6697 3.48716C25.603 1.5669 23.9628 1.07815e-05 21.9558 1.07815e-05C20.8757 1.07815e-05 19.8622 0.460075 19.1688 1.22018C18.8144 0.834452 18.3835 0.526753 17.9037 0.316678C17.4239 0.106604 16.9055 -0.00124146 16.3817 1.07815e-05C14.3348 1.07815e-05 12.6679 1.63357 12.6679 3.60718V3.62051C12.6679 4.67399 13.1879 6.03418 14.0347 7.36103C15.2616 9.27463 17.1485 11.1349 18.8887 11.9417C19.0688 12.0217 19.2755 12.0217 19.4555 11.9417C20.3223 11.5283 21.1157 10.9949 21.8158 10.3615H21.8225ZM28.0033 6.20754C28.0033 6.76762 27.7166 7.54106 27.2766 8.32784C26.6498 9.46133 25.6964 10.6282 24.6629 11.2482C23.7227 10.6615 22.7626 9.54801 22.1092 8.42118C21.6558 7.64107 21.3424 6.8543 21.3357 6.23421C21.3691 5.4141 22.0025 4.74734 22.7693 4.74734C23.3094 4.74734 23.8028 5.08072 24.0495 5.58745C24.1628 5.82082 24.4028 5.97417 24.6629 5.96751C24.9229 5.96751 25.1563 5.80749 25.263 5.56745C25.4963 5.02738 26.0031 4.67399 26.5631 4.67399C27.3566 4.67399 27.9967 5.37409 28.0033 6.20754ZM24.3162 3.89389C24.3295 3.80054 24.3362 3.70053 24.3362 3.60718C24.3362 2.35367 23.256 1.3402 21.9558 1.3402C21.0157 1.3402 20.1556 1.86694 19.7755 2.70039C19.6688 2.93375 19.4288 3.08711 19.1688 3.08711C18.9087 3.08711 18.6754 2.93375 18.562 2.70039C18.182 1.8736 17.3219 1.3402 16.3817 1.3402C15.0815 1.3402 14.0014 2.36034 14.0014 3.61385V3.62718C14.0014 4.48063 14.4681 5.56745 15.1616 6.6476C16.1817 8.24782 17.7086 9.82138 19.1688 10.5948C19.8555 10.2348 20.4956 9.78137 21.0557 9.25463C21.0224 9.20129 20.989 9.14128 20.9557 9.08794C20.3623 8.0678 20.0022 7.02099 20.0022 6.20754V6.18087C20.0622 4.63399 21.3024 3.40715 22.7693 3.40715C23.3294 3.40715 23.8628 3.58051 24.3095 3.89389H24.3162Z" fill="#FF5E3A"/>
</g>
<defs>
<filter id="filter0_d_6_98" x="0" y="0" width="34.6704" height="32.01" filterUnits="userSpaceOnUse" color-interpolation-filters="sRGB">
<feFlood flood-opacity="0" result="BackgroundImageFix"/>
<feColorMatrix in="SourceAlpha" type="matrix" values="0 0 0 0 0 0 0 0 0 0 0 0 0 0 0 0 0 0 127 0" result="hardAlpha"/>
<feOffset dy="4"/>
<feGaussianBlur stdDeviation="2"/>
<feComposite in2="hardAlpha" operator="out"/>
<feColorMatrix type="matrix" values="0 0 0 0 0 0 0 0 0 0 0 0 0 0 0 0 0 0 0.25 0"/>
<feBlend mode="normal" in2="BackgroundImageFix" result="effect1_dropShadow_6_98"/>
<feBlend mode="normal" in="SourceGraphic" in2="effect1_dropShadow_6_98" result="shape"/>
</filter>
</defs>
</svg>
