<svg width="317" height="508" viewBox="0 0 317 508" fill="none" xmlns="http://www.w3.org/2000/svg">
<g filter="url(#filter0_d_2_66)">
<path fill-rule="evenodd" clip-rule="evenodd" d="M88.786 245.887C99.1608 236.247 95.8308 226.948 99.2977 215.199C106.001 200.665 119.831 186.349 135.847 183.248C143.843 178.568 154.295 181.221 159.758 188.56C164.89 189.92 165.059 197.011 166.775 201.206C169.946 209.447 172.37 217.843 174.357 226.403C236.128 239.255 283.506 281.29 293.383 345.044C295.07 354.309 296.453 363.636 297.75 372.963C298.512 380.998 302.538 393.747 294.259 398.946C294.023 404.71 293.331 410.532 291.136 415.957C290.293 421.363 289.612 426.806 287.829 432.017C283.902 441.041 283.297 450.94 278.885 459.936C275.802 466.572 271.278 471.898 265.681 476.539C263.317 478.61 260.071 480.857 259.575 484.096C259.724 488.979 256.017 496.037 250.162 493.744C246.005 495.306 241.542 495.712 237.141 495.68C162.548 492.456 87.7983 492.185 13.2031 495.789C10.5871 495.91 8.10394 493.401 8.21106 490.8C9.40933 462.414 12.3302 434.126 16.9576 406.093C27.2669 348.058 38.2804 283.142 88.786 245.887Z" fill="white"/>
<path fill-rule="evenodd" clip-rule="evenodd" d="M168.589 217.054L168.312 216.285C166.622 211.619 164.553 211.272 165.549 215.794L165.702 216.476C166.564 220.345 167.598 224.344 169.714 227.73C173.363 233.568 182.927 235.734 189.303 237.81C189.284 237.957 189.284 238.103 189.299 238.242C185.402 238.837 181.402 240.713 178.137 242.815C175.15 244.745 172.451 246.911 170.44 249.788L160.601 245.516C157.354 244.109 154.081 242.433 150.553 241.868C145.579 241.072 137.911 243.737 138.498 250.006C138.533 250.388 138.667 250.754 138.889 251.067C139.11 251.381 139.411 251.63 139.76 251.79C139.262 251.748 138.758 251.734 138.26 251.752C134.932 251.865 130.232 254.809 131.969 258.691C132.413 259.692 133.697 259.034 133.798 258.198C134.454 252.691 140.148 253.985 144.099 254.885C147.675 255.697 151.208 256.694 154.664 257.912C158.359 259.214 161.933 260.873 165.232 263.005C168.633 265.206 171.814 267.879 171.604 272.276C171.596 272.369 171.743 272.415 171.785 272.326C173.54 268.583 170.121 264.634 167.344 262.478C163.322 259.357 158.611 257.112 153.851 255.362C151.404 254.463 148.881 253.757 146.348 253.131L145.763 252.986C144.276 252.628 142.735 252.212 141.184 251.962C141.757 251.821 142.257 251.405 142.479 250.654L142.509 250.549C144.746 241.692 156.739 248.817 161.594 250.955C165.069 252.485 168.584 253.951 172.019 255.57L172.461 255.782C175.125 257.06 177.901 258.568 179.692 260.974C184.284 267.13 180.16 275.442 178.71 281.942C178.296 283.806 177.899 285.782 177.873 287.696C177.854 289.263 178.334 290.742 178.722 292.247L178.95 293.137C178.748 293.141 178.544 293.351 178.611 293.563C180.24 298.881 182.998 303.924 185.684 308.775C188.425 313.725 191.243 318.649 194.27 323.428C205.029 340.421 217.348 356.465 230.862 371.362C237.34 378.501 244.345 385.165 250.668 392.447C253.611 395.835 256.362 399.386 258.661 403.256C259.908 405.346 261.008 407.52 261.953 409.763L262.137 410.209C262.907 412.048 263.665 413.667 265.094 415.137C265.808 415.87 267.233 415.561 267.459 414.513C268.51 409.589 265.023 404.27 262.492 400.25C259.761 395.911 256.568 391.864 253.175 388.024C252.215 386.938 251.239 385.864 250.249 384.804C254.672 386.019 259.333 386.34 263.843 387.137C268.46 387.949 273.048 388.916 277.522 390.325C281.618 391.607 285.563 393.327 289.289 395.455C291.094 396.474 292.828 397.614 294.48 398.867C294.636 398.984 294.787 399.111 294.936 399.232C292.256 405.967 290.196 412.951 288.04 419.857C286.573 424.581 285.128 429.311 283.704 434.048L280.499 444.709C278.184 452.393 276.257 460.751 272.181 467.741C270.393 470.777 268.068 473.464 265.319 475.669C263.998 476.733 262.56 477.54 261.068 478.324C260.13 478.818 259.301 479.458 258.43 480.044C257.855 479.39 256.985 478.986 255.918 479.157L255.799 479.178C252.425 479.84 248.946 478.645 245.945 477.171C242.82 475.632 239.706 473.822 237.064 471.544C231.864 467.058 227.552 461.468 223.349 456.074C208.365 436.826 195.606 415.745 185.206 393.691C179.931 382.462 174.98 371.084 170.357 359.572C168.034 353.829 165.758 348.066 163.53 342.286L163.236 341.511C161.243 336.205 159.498 330.444 156.295 325.764C156.27 325.724 156.237 325.69 156.198 325.663C156.189 325.533 156.149 325.406 156.081 325.295C155.087 323.707 153.185 323.242 151.537 322.507C149.682 321.672 147.83 320.842 145.977 320.014C144.52 319.36 142.384 318.807 141.289 317.569C140.049 316.174 139.633 313.691 139.03 311.965C137.663 308.066 136.186 304.214 134.706 300.356C133.407 296.967 132.285 293.333 130.462 290.177C128.905 287.482 126.682 286.061 124.111 284.51L123.554 284.175C122.481 283.519 121.335 282.736 120.908 281.51C120.212 279.508 121.759 277.594 123.401 276.639C127.051 274.525 131.422 276.966 134.623 278.831C137.84 280.707 140.979 282.96 144.419 284.413C144.494 284.442 144.549 284.329 144.494 284.278C141.729 281.748 138.35 279.661 135.172 277.602L134.383 277.089C132.277 275.71 129.875 274.367 127.336 273.994C127.864 273.818 127.701 273.134 127.197 273.073C122.203 272.464 117.132 273.243 112.187 272.08C107.776 271.042 103.925 268.549 100.841 265.27C97.9332 262.18 95.6286 258.604 93.4787 254.96C92.2311 252.84 91.0114 250.706 89.746 248.593C89.5576 248.276 89.3692 247.924 89.1768 247.547C91.4398 247.024 93.7444 245.34 95.2815 244.034C97.6694 242.007 99.4128 239.269 100.627 236.411C103.477 229.706 103.251 222.04 101.118 215.18C100.988 214.76 100.367 214.74 100.246 215.18C98.6075 221.055 98.4608 227.425 95.8884 233.027C94.8593 235.266 93.4228 237.294 91.652 239.009C90.7555 239.875 89.8511 240.604 88.7524 241.206C87.5762 241.856 86.3188 242.068 85.3847 243.099C85.3291 243.158 85.2796 243.218 85.2339 243.279C84.6865 243.206 84.2145 243.285 83.8376 243.521L83.7583 243.572L83.7425 243.549C85.4303 242.397 87.128 241.256 88.9249 240.251C89.4029 239.984 89.0538 239.344 88.5779 239.427L87.3938 239.635C83.443 240.339 79.4168 241.139 75.8091 242.895C71.8154 244.843 67.9811 247.101 64.3415 249.65C57.157 254.678 50.6272 260.581 44.9028 267.221C34.3515 279.455 26.8942 294.162 22.2809 309.581C16.5154 328.851 14.2861 349.09 11.8506 368.994C10.6883 378.525 9.64297 388.07 8.71494 397.627L8.46503 400.232C8.00095 405.148 7.49716 410.056 7.02515 414.961C6.18619 416.276 6.12668 417.838 6.62253 419.195C6.2576 423.17 5.93036 427.149 5.67053 431.139C5.00809 441.437 4.5817 451.769 4.39725 462.092C4.21277 472.56 4.59357 483.015 4.71655 493.485C4.76611 497.89 11.444 497.872 11.5491 493.485C11.8169 481.917 12.6479 470.345 13.2389 458.787C13.8161 447.504 14.3535 436.228 15.0438 424.953C15.1112 423.881 15.1747 422.805 15.2322 421.733C16.208 422.104 17.4138 422.258 18.4372 422.46L18.6891 422.512C20.7478 422.95 22.8105 423.265 24.9029 423.455L25.5792 423.513C27.4773 423.643 37.2016 423.851 42.9512 422.805C42.4931 430.18 42.0329 437.555 41.5252 444.925C40.9481 453.33 40.839 461.747 40.4146 470.161C40.2023 474.365 39.9465 478.542 39.409 482.721C39.1651 484.624 38.9152 486.528 38.6157 488.424L38.463 489.371C38.1952 491 37.86 492.395 38.5502 493.847C37.9473 495.712 38.8854 498.062 41.3586 497.872C57.2054 496.687 73.09 496.185 88.9785 496.114C116.412 495.983 143.828 497.083 171.247 497.836L178.657 498.036C204.341 498.74 230.152 499.489 255.717 496.649C255.773 499.921 261.889 499.883 261.562 496.235L261.483 495.355C261.114 491.386 260.638 487.275 259.404 483.454C260.428 483.482 261.453 483.443 262.419 483.124C263.787 482.676 265.104 481.863 266.294 481.059C268.942 479.274 271.179 477.076 273.111 474.538C276.903 469.558 279.422 463.657 281.411 457.765C283.519 451.477 285.474 445.14 287.274 438.758L289.22 431.855C291.691 423.075 294.119 414.16 295.59 405.148C295.764 405.375 295.994 405.554 296.257 405.667C304.134 409.187 310.874 401.97 312.205 394.676C312.99 390.372 312.806 385.97 312.74 381.614L312.732 381.149C312.665 376.131 312.645 371.114 312.389 366.101C311.542 349.342 307.633 333.102 301.554 317.49C295.826 302.793 288.904 287.981 279.987 274.927C275.751 268.729 270.864 262.775 264.977 258.063C258.77 253.099 251.788 249.327 244.476 246.253C237.005 243.113 229.258 240.628 221.501 238.284C212.945 235.696 204.287 233.471 195.483 231.909C194.843 231.796 194.214 231.985 193.857 232.571C193.548 233.086 193.26 233.613 192.979 234.15C191.777 233.395 189.928 233.211 188.724 232.843C184.95 231.676 178.159 230.976 175.166 228.313C171.755 225.277 170.115 221.231 168.589 217.054ZM296.267 400.401C296.798 400.886 297.33 401.372 297.879 401.827C297.163 401.526 296.512 401.728 296.034 402.172C296.118 401.582 296.193 400.991 296.267 400.401ZM123.078 287.139C123.891 287.642 124.696 288.144 125.428 288.748C128.064 290.926 128.955 294.479 130.051 297.58L130.121 297.776C131.462 301.536 132.843 305.281 134.262 309.013C134.71 310.182 135.129 311.432 135.577 312.694C129.536 318.498 123.36 324.24 116.894 329.571C105.061 339.323 92.1677 347.796 78.4668 354.698C71.422 358.249 64.1491 361.482 56.664 363.991C53.9607 364.895 51.2098 365.691 48.4133 366.282L48.4094 366.24C48.3975 366.139 48.2328 366.093 48.217 366.214L48.2011 366.327C47.0032 366.575 45.7953 366.785 44.5835 366.947C42.2851 367.251 39.9681 367.393 37.6498 367.371C36.2119 367.357 34.7878 367.181 33.3717 367.252C39.6439 361.608 45.9444 355.995 52.2729 350.414C64.2644 339.838 76.3 329.312 88.3795 318.837C93.7404 314.18 99.1589 309.579 104.496 304.891L109.637 300.354C114.179 296.339 118.693 292.261 122.628 287.672L123.078 287.139ZM176.642 318.264C177.007 317.814 176.453 317.246 176.005 317.626C173.328 319.893 170.301 320.886 167.088 322.104C166.338 322.388 166.396 323.583 167.284 323.569C171.019 323.503 174.383 321.09 176.642 318.264ZM139.131 262.482L138.863 262.375C135.087 260.894 130.19 260.159 127.219 263.591C125.065 266.082 124.516 270.798 127.322 272.972C127.997 273.495 129.427 273.047 128.998 271.997C127.767 268.993 127.507 265.062 131.384 263.904C134.746 262.902 138.677 264.859 141.739 266.221L142.616 266.607C148.586 269.256 154.516 272.466 158.175 278.076C158.272 278.219 158.528 278.127 158.465 277.955C155.543 269.873 146.602 265.521 139.131 262.482ZM183.367 245.173L184.817 244.625C188.51 243.247 193.105 241.848 195.396 245.813C196.255 247.296 196.993 249.13 197.312 250.836L197.352 251.068C197.441 251.597 197.554 252.162 197.177 252.568C196.596 253.204 194.702 253.515 193.938 253.791L189.143 255.531L186.749 256.404C185.658 256.803 184.252 257.201 183.447 258.075C180.63 254.381 176.152 252.279 171.923 250.432C175.731 248.661 179.424 246.656 183.367 245.173Z" fill="black"/>
<path fill-rule="evenodd" clip-rule="evenodd" d="M173.49 40.9837C109.98 37.8628 66.8881 87.921 65.0336 107.882C63.7465 121.739 64.6211 140.22 64.6211 152.603C64.6211 158.921 61.4299 178.134 65.0336 187.344C73.0562 207.848 82.1201 223.908 107.235 223.908C132.35 223.908 170.636 210.898 183.782 194.119C186.184 191.055 216.011 168.629 216.011 151.001C216.011 113.393 218.807 43.2108 173.49 40.9837Z" fill="white"/>
<path fill-rule="evenodd" clip-rule="evenodd" d="M216.816 0.36528C213.197 -0.764164 210.886 0.860654 209.24 3.38506C208.875 3.31373 208.524 3.31769 208.131 3.4128C208.036 3.43658 207.802 3.52376 207.623 3.59312C207.486 3.65256 207.364 3.71993 207.245 3.79522L207.173 3.75559C206.901 3.46035 206.618 3.19088 206.308 2.97291C205.712 2.52703 204.963 2.33601 204.226 2.44187L203.913 2.32695C201.235 1.39367 198.329 1.82761 196.513 4.13406C196.162 4.57791 195.878 5.07526 195.634 5.60035C195.091 5.77868 194.579 6.03628 194.139 6.35332C193.829 6.20669 193.502 6.08581 193.153 5.99665C191.176 5.48741 189.099 5.96693 187.489 7.17761C186.703 7.76611 186.128 8.50521 185.69 9.34734C185.192 9.46424 184.7 9.67428 184.238 9.95565C183.841 9.7575 183.439 9.57521 183.026 9.44839C181.505 8.98753 179.912 8.81219 178.328 8.93123C174.944 9.18089 171.671 13.0448 173.932 16.3618L174.004 16.4609C174.289 16.8631 174.539 17.2752 174.771 17.6953C173.939 18.0577 173.162 18.5338 172.461 19.1101C168.934 21.9971 168.617 26.4495 169.278 30.6483L169.305 30.8226H169.297C167.423 31.001 165.807 32.9567 166.913 34.7955L166.967 34.8807C168.464 37.1951 169.75 39.7492 171.18 42.1825C175.13 43.5919 178.939 45.3712 182.554 47.4968C184.793 49.4585 186.925 51.5291 188.802 53.8375C189.738 54.9947 190.602 56.2083 191.39 57.4716C191.054 57.6421 190.673 57.7027 190.3 57.6447C189.928 57.5868 189.583 57.4132 189.315 57.1486C183.441 51.7074 176.344 47.8891 168.788 45.331C168.549 45.2566 168.329 45.1344 168.139 44.9719C167.949 44.8094 167.795 44.61 167.685 44.3859C164.33 43.4313 160.918 42.6901 157.469 42.1666C156.519 41.2611 155.523 40.3972 154.577 39.4956C153.369 38.3463 151.856 38.3622 150.725 39.0834C150.164 38.8278 149.591 38.6019 149.008 38.3998L148.645 38.277C148.494 38.2274 148.349 38.17 148.203 38.1244C144.157 36.8879 140.458 37.3476 136.477 38.3622L135.967 38.4949C134.113 38.9863 132.945 38.9091 131.15 38.4553L130.948 38.4038C129.038 37.9064 126.997 37.5379 125.045 38.061C123.004 38.6099 121.65 39.8304 120.259 41.3027L120.121 41.4513C119.472 42.1448 119.097 42.2201 118.248 42.2043L117.338 42.1765C113.905 42.0834 110.543 42.228 107.971 44.8812C107.021 45.8621 105.999 47.2531 105.388 48.5192L105.299 48.7095C105.275 48.763 105.249 48.8159 105.222 48.868C104.853 48.8085 104.28 48.5747 104.006 48.5212C100.264 47.798 97.1418 48.9155 94.7399 51.862C94.2144 52.506 93.419 53.7722 92.8696 54.4696C92.6773 54.6321 92.4948 54.8065 92.3222 54.9908C91.4198 55.5654 90.1426 55.5317 89.1311 55.7318C86.3742 56.2807 83.427 57.3289 82.0268 59.9524C81.4397 61.0462 81.2235 62.243 80.9756 63.4398C80.0494 64.0461 79.3235 64.9259 78.7602 65.873C78.074 67.0263 77.7824 68.4371 76.9931 69.5269C76.4199 70.3175 75.5433 70.7396 74.7103 71.2231L74.3909 71.4093C71.9217 72.8796 69.9879 74.5103 69.1748 77.3894L69.1053 77.647C68.9725 78.0869 68.5103 79.3471 68.913 79.1569C68.5659 79.3491 67.9748 79.4145 67.6595 79.5215C65.9459 80.0882 64.4564 81.0037 63.5441 82.6106C62.8479 83.8352 62.723 85.1093 62.5247 86.4587L62.4394 87.0036C62.4176 87.1343 62.3918 87.2889 62.364 87.4355L62.3382 87.5822L62.3323 87.5861C62.0229 87.7189 61.7175 87.8635 61.418 88.022C59.9979 88.8563 59.028 90.3067 59.028 91.985C59.028 92.8014 59.2819 93.4355 59.6528 94.0022C59.3533 94.4579 59.1212 94.9414 58.9447 95.4803C58.6016 96.5305 58.5778 97.6838 58.6929 98.7716C58.8317 100.079 59.1669 101.268 59.5635 102.517C59.7142 102.998 59.7758 103.67 60.0058 104.13C59.5834 104.668 59.3295 105.328 59.4088 105.978C59.5199 106.91 59.9443 107.995 60.7872 108.515C61.1998 110.548 62.0863 112.622 62.959 114.283C63.0543 114.467 63.1744 114.638 63.316 114.79C63.193 121.42 63.679 128.096 63.7127 134.716C63.7504 141.922 63.5996 149.135 63.3497 156.334C62.9253 168.264 61.412 180.603 64.9364 192.236C67.8201 201.759 73.5936 209.935 81.3366 216.133C89.2153 222.458 98.8788 226.158 108.97 226.716C114.161 226.985 119.361 226.434 124.379 225.081L124.912 224.936C129.744 223.611 135.341 221.584 138.897 218.033C140.775 216.157 138.877 212.184 136.122 213.275C133.395 214.361 130.948 215.964 128.242 217.096C125.825 218.104 123.3 218.879 120.745 219.45C115.62 220.601 110.186 220.853 104.978 220.135C86.1719 217.563 71.5191 201.957 68.6293 183.45C67.8281 178.324 67.844 173.115 67.8975 167.937L67.957 162.262C68.0026 157.515 68.0185 152.765 67.8439 148.021C67.6218 141.914 67.1914 135.813 66.6123 129.732L66.3108 126.568C65.9538 122.866 65.5512 119.137 64.8571 115.485C65.4263 115.515 69.9126 107.845 72.4017 103.557C73.31 102.838 74.0776 101.942 74.3751 100.785C74.4335 100.545 74.4707 100.301 74.4861 100.056C75.0261 99.2082 75.5977 98.3813 76.1997 97.5768L76.3306 97.5173C76.4074 97.4839 76.4828 97.4476 76.5567 97.4083C78.3209 96.3903 79.664 94.7772 80.3449 92.8588C81.4161 91.8052 82.5401 90.8065 83.7126 89.8668C83.8276 89.7757 83.9486 89.6885 84.0637 89.5993C85.5631 89.0405 86.878 88.1984 87.836 86.9857C88.2366 86.7373 88.6406 86.4942 89.0478 86.2566C90.3047 86.2282 91.5446 85.9605 92.7011 85.4679C94.8966 84.5663 96.6499 82.787 98.8573 81.9607C101.19 81.0889 103.647 83.0703 106.124 82.7137C106.764 82.6198 107.386 82.4301 107.969 82.1509C109.365 83.6291 110.845 85.0221 112.479 86.2407C114.849 88.0102 117.273 88.8186 120.02 89.6171C121.38 90.9091 122.905 92.1614 124.744 92.3456C128.998 95.7439 133.548 98.6111 138.336 101.272C139.025 101.669 139.803 101.884 140.599 101.898C142.113 102.845 143.753 103.575 145.47 104.068C146.013 104.225 146.572 104.258 147.122 104.191L148.625 105.414C149.67 106.266 150.787 106.672 151.854 106.698C152.503 107.193 153.177 107.664 153.869 108.116C154.611 108.602 155.573 108.804 156.541 108.744C158.018 110.191 159.932 110.341 161.537 109.676C162.094 110.01 162.691 110.273 163.314 110.46C164.143 111.354 165.168 112.045 166.308 112.479C167.449 112.913 168.674 113.078 169.888 112.961C171.721 114.082 173.853 114.665 175.938 114.534C176.255 116.131 176.519 117.732 176.741 119.339L176.765 120.518C176.767 120.664 176.767 120.809 176.765 120.954L176.763 120.994C176.558 126.158 176.447 131.323 176.245 136.489L176.227 136.895C175.997 141.407 174.886 149.632 181.523 149.454C183.996 149.387 186.447 147.568 188.373 146.07L188.645 145.86C188.792 145.745 188.944 145.628 189.095 145.507C190.535 145.321 191.953 144.97 193.407 144.918C195.231 144.858 197.055 145.036 198.833 145.445C201.917 146.161 204.9 147.564 206.911 150.106C207.086 150.329 207.252 150.56 207.407 150.797C207.55 151.278 207.79 151.724 208.113 152.107C210.017 156.383 208.918 162.034 206.814 165.944C204.309 170.604 200.345 173.824 195.358 175.447L195.109 175.526C191.701 176.59 190.398 178.651 188.546 181.514C186.812 184.203 184.821 186.708 182.685 189.088C178.548 193.689 172.744 197.489 170.341 203.313C169.855 204.486 171.245 205.591 172.322 205.29C176.541 204.105 179.5 201.101 182.566 198.117C184.695 196.055 186.724 193.893 188.647 191.638C189.059 191.827 189.499 191.951 189.95 192.004C191.983 192.252 194.079 192.149 195.858 191.055C196.277 191.089 196.698 191.037 197.095 190.901C197.492 190.764 197.857 190.548 198.167 190.265C198.732 189.747 199.238 189.167 199.674 188.537C200.3 188.606 200.932 188.597 201.556 188.511C201.845 188.484 202.126 188.406 202.387 188.281C202.904 188.077 203.367 187.759 203.742 187.35C204.589 186.442 204.912 185.158 204.757 183.938C205.404 183.802 206.013 183.524 206.54 183.126C207.067 182.728 207.499 182.218 207.806 181.633C208.777 181.085 209.645 180.37 210.368 179.521C211.192 178.56 211.809 177.441 212.181 176.232C212.562 176.055 212.928 175.849 213.276 175.615C215.793 173.913 217.233 170.719 216.245 167.765L216.211 167.672C216.162 167.539 216.07 167.313 215.959 167.057C215.975 166.849 215.991 166.641 216.003 166.431L216.037 165.803L216.542 165.589C219.055 164.59 220.755 163.241 221.056 160.414C221.12 159.829 220.894 159.233 220.535 158.735V158.579C220.69 158.499 220.843 158.412 220.991 158.319C222.363 157.445 223.204 155.876 223.111 154.255C223.024 152.777 222.205 151.598 221.285 150.508L221.021 150.203L220.947 150.122L221.558 149.929C221.909 149.83 222.249 149.697 222.574 149.533C223.581 148.968 224.436 148.206 224.962 147.237C225.041 147.118 225.116 146.999 225.188 146.87C225.868 145.632 225.957 144.042 225.517 142.711C225.465 142.554 225.398 142.406 225.331 142.259C227.181 141.607 228.609 140.258 228.782 137.773C228.851 136.805 228.637 135.837 228.167 134.987C228.271 134.421 228.291 133.842 228.226 133.269C228.877 132.655 229.382 131.912 229.609 131.008C230.037 129.3 229.254 127.673 228.089 126.183C228.537 124.99 228.523 123.673 228.05 122.49C228.244 121.888 228.347 121.26 228.355 120.627C228.374 119.33 227.977 118.06 227.221 117.005C228.216 115.787 228.688 114.172 228.101 112.654C227.706 111.623 227.221 110.627 226.653 109.68C226.96 108.936 227.116 108.139 227.11 107.336C227.11 105.77 226.523 104.53 225.622 103.513C226.015 101.659 225.221 99.3997 223.492 98.5834C222.692 98.2158 221.86 97.9214 221.007 97.7036C220.647 96.5766 220.269 95.4556 219.872 94.341C219.246 92.5874 218.571 90.8576 217.857 89.1495C218.267 89.508 218.697 89.8415 219.147 90.1482C220.5 91.8446 222.142 93.2906 223.996 94.4203C227.11 96.2611 230.672 95.1693 232.207 92.0881C233.655 93.166 235.388 93.804 237.236 93.586C239.335 93.3384 241.253 91.981 241.776 89.8628C241.855 89.545 241.898 89.2193 241.903 88.8919C243.105 89.7479 244.363 90.5366 245.745 90.9864C247.504 91.561 249.299 90.1838 249.531 88.4659C249.622 87.852 249.514 87.2251 249.224 86.6766L249.396 86.6093C249.867 86.4012 250.292 86.102 250.646 85.7288C251 85.3557 251.276 84.9162 251.459 84.4356C253.456 85.2084 255.743 84.3028 256.378 82.1073C257.117 79.5707 257.189 76.8865 256.586 74.3142C258.702 72.7785 260.081 70.1927 260.315 67.4919C260.487 65.554 260.023 63.7628 259.208 62.1082C261.209 61.3612 261.897 58.7397 260.945 56.8494C262.209 56.1281 263.032 54.5945 263.052 53.1044C263.615 52.2484 263.795 51.1487 263.329 49.9142C262.71 48.2914 261.453 46.9321 260.015 45.866C260.643 44.7679 261.109 43.5845 261.397 42.3529C262.02 42.1783 262.576 41.8225 262.995 41.3309C263.414 40.8393 263.676 40.2342 263.75 39.5927C263.863 38.7608 263.665 37.9164 263.192 37.2221C262.72 36.5277 262.007 36.0325 261.191 35.8318C261.013 35.279 260.795 34.738 260.525 34.2189C261.32 32.3365 261.203 29.9528 260.176 27.892C259.267 26.0691 257.788 24.9555 256.007 24.1866C256.459 22.6351 255.86 21.0896 254.353 19.9384C252.538 18.5548 250.519 17.4606 248.369 16.6947C248.557 14.1722 247.502 11.5904 245.009 10.7106C244.344 10.4866 243.645 10.3793 242.943 10.3936C242.431 9.27799 241.576 8.37443 240.461 7.57391C238.776 6.36323 235.622 7.10232 234.686 9.00058L234.64 9.09965C234.593 9.20665 234.541 9.30572 234.492 9.40876C234.303 8.48737 233.863 7.6175 233.153 6.90219C231.382 5.11885 229.511 5.08318 227.713 5.84804C227.383 5.02968 226.983 4.25097 226.497 3.53962C224.732 0.957745 221.816 0.628818 219.682 2.02774C218.854 1.27798 217.878 0.712823 216.816 0.36528ZM204.202 155.597C200.648 154.206 196.336 154.618 192.826 155.953L192.568 156.052C189.466 157.279 184.428 160.003 183.821 163.491C183.506 165.296 185.224 166.857 186.967 165.908C188.484 165.082 189.335 163.419 190.541 162.213C191.735 161.02 193.072 160.061 194.529 159.219C197.572 157.465 200.769 156.781 204.2 156.276C204.587 156.221 204.484 155.706 204.202 155.597Z" fill="black"/>
<path fill-rule="evenodd" clip-rule="evenodd" d="M108.082 193.029C110.924 191.87 113.4 189.966 115.25 187.518C115.533 187.159 115.739 186.746 115.854 186.303C115.969 185.861 115.992 185.4 115.92 184.948C115.769 184.023 115.222 183.187 114.476 182.624C113.728 182.061 112.792 181.784 111.888 181.924C111.101 182.047 110.319 182.477 109.698 183.371L109.569 183.549C108.491 185.023 107.072 186.214 105.432 187.019C103.845 187.798 102.069 188.11 100.311 187.918C96.8641 187.53 94.4901 185.667 91.9653 183.137C91.6519 182.818 91.3386 182.489 91.0252 182.154C90.8411 181.871 90.5653 181.659 90.2438 181.554C89.8948 181.444 89.5198 181.449 89.1736 181.567C88.8275 181.685 88.5283 181.911 88.32 182.212C88.1276 182.495 88.0165 182.846 88.0522 183.25C88.2842 185.872 89.6547 188.21 91.6024 190.047C93.7662 192.087 96.6341 193.498 99.3334 193.994C102.306 194.539 105.337 194.148 108.082 193.029ZM97.9292 152.591C94.7658 154.515 89.9443 158.997 93.3477 163.762C97.356 167.963 103.124 163.146 105.966 160.966C108.602 159.278 111.565 163.622 109.119 165.593C88.5758 180.793 80.2398 153.094 96.3286 150.332C98.1017 150.027 98.7582 151.996 97.9292 152.591ZM134.74 134.91C134.391 130.572 127.782 129.588 127.124 133.879C126.537 137.724 127.229 141.257 128.962 144.718C130.617 148.023 134.778 146.482 135.093 143.47C135.515 139.434 134.958 137.609 134.74 134.91ZM84.4326 132.99C83.5104 131.783 82.1796 130.961 80.5869 131.424C75.6068 132.881 77.0744 139.947 78.8237 143.387C79.7738 145.253 82.846 145.727 84.2343 144.082C86.4953 141.401 87.5802 136.045 84.7023 133.402C84.625 133.267 84.5377 133.128 84.4326 132.99ZM129.032 115.933L128.244 115.794C125.811 115.374 122.786 114.97 121.065 116.924C120.15 117.962 119.837 119.89 121.065 120.883C123.223 122.627 125.611 121.953 128.197 122.1C130.308 122.22 132.399 122.577 134.43 123.162C138.937 124.45 142.608 126.798 146.455 129.378C146.959 129.714 147.475 129.07 147.235 128.599C145.014 124.249 140.71 120.679 136.398 118.501C134.095 117.338 131.578 116.375 129.032 115.933ZM88.9725 113.985L88.3695 114.108C81.8166 115.475 73.3041 118.21 70.2022 124.644C70.0832 125.553 70.2081 125.747 70.3093 125.874L70.343 125.918C70.4283 126.027 70.4938 126.175 70.8884 126.3C70.9998 126.274 71.1108 126.246 71.2216 126.217C72.6437 125.845 73.7682 125.331 74.8571 124.798L76.0392 124.218C77.4096 123.544 78.792 122.898 80.2577 122.421C83.382 121.398 86.6002 120.688 89.8649 120.3C90.5613 120.231 91.2267 119.978 91.7927 119.567C92.3319 119.163 92.7134 118.583 92.8717 117.929C93.1018 117.003 93.0343 116.304 92.5385 115.468C92.1656 114.841 91.6301 114.407 91.0173 114.158C90.3673 113.901 89.6562 113.841 88.9725 113.985Z" fill="black"/>
</g>
<defs>
<filter id="filter0_d_2_66" x="0.347656" y="0" width="316.459" height="507.04" filterUnits="userSpaceOnUse" color-interpolation-filters="sRGB">
<feFlood flood-opacity="0" result="BackgroundImageFix"/>
<feColorMatrix in="SourceAlpha" type="matrix" values="0 0 0 0 0 0 0 0 0 0 0 0 0 0 0 0 0 0 127 0" result="hardAlpha"/>
<feOffset dy="4"/>
<feGaussianBlur stdDeviation="2"/>
<feComposite in2="hardAlpha" operator="out"/>
<feColorMatrix type="matrix" values="0 0 0 0 0 0 0 0 0 0 0 0 0 0 0 0 0 0 0.25 0"/>
<feBlend mode="normal" in2="BackgroundImageFix" result="effect1_dropShadow_2_66"/>
<feBlend mode="normal" in="SourceGraphic" in2="effect1_dropShadow_2_66" result="shape"/>
</filter>
</defs>
</svg>
