<svg width="531" height="606" viewBox="0 0 531 606" fill="none" xmlns="http://www.w3.org/2000/svg">
<path fill-rule="evenodd" clip-rule="evenodd" d="M50.179 601.283C56.1676 601.651 62.156 601.942 68.1436 602.166C146.449 605.075 224.691 596.17 302.949 594.222C330.201 593.507 357.313 593.863 384.496 596.045C387.16 596.26 390.205 593.4 389.879 590.678C384.856 547.427 378.572 504.295 375.316 460.868C375.314 458.57 375.612 456.277 376.403 454.114C376.552 453.944 377.324 452.041 378.013 451.923C377.788 452.09 378.806 451.798 378.158 451.847C382.088 451.207 385.943 446.973 383.09 442.923C353.709 397.996 313.602 356.992 300.699 303.628C297.65 289.201 286.639 288.309 274.906 282.358C271.248 280.185 262.297 274.171 260.841 269.989C257.36 254.913 263.488 240.147 245.587 234.047C233.771 230.779 212.884 228.014 200.927 231.459C186.343 236.302 187.434 252.7 178.974 263.981C174.598 270.506 167.139 279.439 160.251 280.44C156.915 280.925 154.455 274.187 151.122 274.65C99.1685 287.239 28.3853 373.116 6.05592 420.657C1.02394 435.617 17.2524 431.104 16.2556 446.142C15.0264 474.671 12.3381 511.193 13.9324 539.755C15.4256 556.332 14.3208 573.703 19.4858 589.657C18.0956 591.341 20.0932 593.044 21.723 593.773C23.7764 597.259 43.983 600.799 50.179 601.283Z" fill="white"/>
<path fill-rule="evenodd" clip-rule="evenodd" d="M185.436 246.013C186.788 239.948 196.458 242.551 194.801 248.589C192.234 257.926 186.913 266.751 179.4 272.945C173.596 277.727 165.688 281.992 157.843 282.781C158.577 283.496 159.283 284.259 160.024 284.986C161.695 286.644 163.471 288.181 165.302 289.66C169.064 292.694 172.976 295.424 177.248 297.71C194.311 306.844 213.588 308.95 232.647 306.823C241.69 305.814 250.87 304.102 259.375 300.803C263.318 299.278 267.149 297.271 270.53 294.734L271.416 294.073C273.194 292.732 275.567 290.843 276.677 288.776C273.296 289.534 269.02 285.94 266.673 283.85C264.109 281.555 261.947 278.594 260.351 275.559C257.223 269.606 255.568 261.924 258.189 255.541C258.364 255.116 258.925 255.187 258.975 255.645C259.749 263.088 261.76 270.064 267.113 275.576C269.491 278.015 272.337 280.063 275.444 281.484L275.879 281.685C277.203 282.294 278.598 283.012 279.154 284.318C279.37 284.294 279.585 284.313 279.791 284.37C279.976 284.42 280.146 284.474 280.31 284.533C279.94 283.81 279.746 282.955 279.779 281.947C279.91 278.039 285.289 277.921 286.033 281.399C285.898 280.941 285.718 281.385 286.059 281.524C286.052 281.484 286.042 281.439 286.033 281.399L286.042 281.437L286.064 281.524H286.059C286.071 281.588 286.083 281.652 286.09 281.718L286.097 281.805L286.092 281.732C286.087 281.678 286.083 281.631 286.075 281.586L286.064 281.524C286.113 281.548 286.184 281.565 286.263 281.565L286.296 281.576C286.421 281.631 286.864 281.836 286.994 281.888C287.889 282.219 288.889 282.323 289.805 282.606C291.792 283.215 293.541 284.224 294.754 285.94C295.623 287.173 296.108 288.585 296.309 290.054C305.099 294.272 313.417 299.75 320.386 306.535C335.938 321.667 346.786 340.606 355.684 360.211C360.214 370.193 364.251 380.385 368.198 390.605L368.821 392.218C373.052 403.203 376.796 414.307 377.715 426.117C377.8 427.175 377.45 428.169 376.846 428.993C377.059 429.881 377.17 430.769 377.139 431.638C377.135 431.772 377.125 431.907 377.116 432.042C378.536 432.016 379.926 432.611 381.248 434.278C381.783 434.108 382.363 434.087 382.934 434.271C386.41 435.381 386.971 439.187 387.624 442.378C388.302 445.672 388.595 449.047 388.6 452.405C388.6 453.607 387.911 455.125 386.739 455.64C384.539 456.606 382.169 457.241 379.891 458.119C378.181 458.778 376.465 459.402 374.734 459.985C375.695 461.657 376.005 463.983 376.524 465.744C377.341 468.496 377.994 471.256 378.546 474.071C382.278 493.211 384.863 512.556 388.356 531.736C390.101 541.344 392.133 550.887 394.205 560.43C395.225 565.12 396.31 569.802 397.475 574.464C398.095 576.948 398.742 579.435 399.407 581.905C399.599 582.627 399.795 583.345 399.994 584.066L400.342 585.324C401.102 585.742 401.753 586.377 402.203 587.244C403.849 590.42 402.904 593.998 399.746 595.786C396.314 597.731 392.218 595.894 390.326 592.734C388.995 590.505 388.56 587.549 387.906 585.069C387.165 582.285 386.459 579.484 385.78 576.684C381.158 557.662 378.063 538.308 375.73 518.88L375.565 517.491C374.378 507.49 373.232 497.464 372.494 487.416C372.127 482.48 371.838 477.545 371.658 472.597C371.568 470.052 371.712 467.492 371.857 464.951C371.923 463.839 372.018 462.719 372.053 461.607L372.063 461.449C372.072 461.336 372.086 461.189 372.096 461.033L372.108 460.844C368.655 461.921 365.153 462.821 361.618 463.579C354.093 465.201 346.395 466.106 338.716 465.645C339.786 478.333 341.181 490.989 343.132 503.561C345.014 515.671 347.186 527.752 349.636 539.762C350.863 545.796 352.187 551.815 353.584 557.813C354.334 561.018 355.189 564.201 355.864 567.422C356.264 569.337 356.39 570.938 355.585 572.731C356.47 575.142 357.259 577.562 358.033 579.843L358.265 580.523C359.636 584.514 362.238 588.597 359.52 592.52C358.116 594.546 355.824 595.705 353.517 595.774C353.477 595.8 353.432 595.83 353.387 595.854C352.146 596.518 350.716 596.647 349.355 596.364C347.29 596.768 345.218 597.157 343.141 597.512C338.015 598.395 332.862 599.122 327.7 599.739C317.869 600.905 307.974 601.545 298.085 601.899C261.876 603.2 225.628 600.915 189.404 601.573C170.949 601.909 152.495 602.738 134.07 603.836C124.876 604.384 115.676 604.974 106.476 605.427L103.628 605.567C95.4012 605.959 87.1681 606.261 78.9471 605.661C78.787 605.652 78.662 605.586 78.5768 605.498C75.7405 605.177 72.8893 602.572 73.1742 599.564C74.3998 586.746 75.6254 573.93 76.856 561.107C79.042 538.265 81.2482 515.42 83.4794 492.58L83.8017 489.284C84.5514 481.588 85.2672 473.875 85.6304 466.148C83.7996 466.021 81.9742 465.855 80.1476 465.655C60.3597 463.494 41.3902 457.522 23.1762 449.679L22.4381 449.361C20.7972 448.645 19.0014 447.932 17.1604 447.169C17.1909 450.657 17.0753 454.152 17.0604 457.604C17.0353 463.34 17.0803 469.074 17.0952 474.803C17.1303 486.613 17.5806 498.425 18.171 510.216C19.2064 531.037 20.4221 551.829 22.2629 572.601C22.7282 577.827 23.359 583.043 23.8037 588.269C24.0693 591.348 23.4336 593.913 20.6077 595.53C19.2164 596.329 18.1409 595.993 16.7602 595.351C13.3886 593.774 13.2934 590.045 12.9732 586.8C12.7286 584.356 12.503 581.91 12.283 579.458C11.8132 574.235 11.4074 569.009 11.0773 563.771C9.77209 542.969 9.39134 522.188 10.2918 501.36C10.71 491.619 11.3136 481.857 12.1146 472.132L12.3029 469.889C12.9633 462.117 13.3886 453.961 14.7541 446.142C9.24642 443.705 3.78846 440.607 1.25719 435.454C-2.02398 428.766 1.58231 423.047 6.72013 419.11C6.66994 418.447 6.72013 417.788 6.86007 417.188C8.33597 410.814 10.8071 404.516 13.1934 398.438C15.5997 392.329 18.256 386.314 21.1775 380.43C32.9034 356.857 48.9217 335.316 68.0165 317.168C77.5013 308.157 87.8816 299.826 98.9623 292.838C104.455 289.381 110.088 286.186 115.921 283.34L116.783 282.922C120.844 280.955 125.398 278.865 129.914 277.772C130.383 277.423 130.859 277.092 131.339 276.778C133.115 275.599 135.526 276.452 136.577 278.136C137.087 277.741 137.677 277.392 138.352 277.078L139.02 276.773C143.072 274.952 147.937 273.25 152.335 274.447C155.066 275.191 157.218 277.196 158.184 279.753C160.398 278.584 162.574 277.382 164.7 275.909C168.117 273.554 171.214 270.629 173.997 267.559C179.573 261.386 183.627 254.153 185.436 246.013ZM378.982 440.661C378.6 440.77 378.2 440.81 377.786 440.76C378.534 440.848 377.033 441.292 376.621 441.502L376.59 441.518C375.839 441.948 375.084 442.361 374.319 442.763C372.531 443.7 370.706 444.543 368.849 445.337C365.193 446.891 361.417 448.083 357.54 448.957C353.747 449.809 349.771 450.308 345.883 450.388C343.283 450.437 340.196 450.319 337.503 449.554C337.816 454.261 338.159 458.962 338.545 463.659L343.861 462.443C349.177 461.227 354.486 459.98 359.731 458.464C363.669 457.326 367.549 455.994 371.388 454.556C373.398 453.803 375.394 453.004 377.364 452.145C378.345 451.717 379.266 451.21 380.175 450.695L380.952 450.253C380.772 448.152 380.443 446.09 379.962 444.014C379.711 442.916 379.285 441.79 378.982 440.661ZM15.0042 418.496C14.3288 420.683 13.2934 422.723 10.9321 423.217C10.0967 423.392 9.39678 423.297 8.81594 423.014L8.67671 423.292C6.73528 427.269 6.1651 431.465 10.6319 434.526C12.6486 435.91 14.8441 437.107 17.1154 438.179C21.1767 440.108 25.5019 441.658 29.5799 443.235L30.3921 443.551C37.6858 446.406 45.0947 449.006 52.6184 451.181C60.2529 453.382 68.0214 455.149 75.8859 456.273C79.2021 456.743 82.5437 457.071 85.8909 457.286C85.9456 452.794 85.9205 448.298 85.9056 443.804C84.7148 443.655 83.5344 443.495 82.3943 443.36C78.922 442.956 75.4602 442.463 72.0184 441.849C64.8298 440.567 57.716 438.793 50.7776 436.528C37.921 432.32 25.9599 426.306 15.0042 418.496ZM155.962 280.906C153.04 277.822 147.452 278.934 143.926 280.431C142.86 280.884 141.785 281.345 140.764 281.898L140.566 282.008C139.378 282.691 139.384 283.097 139.964 284.457C140.719 286.25 141.77 287.981 142.77 289.643C147.053 296.777 152.69 302.985 159.129 308.23C181.929 326.796 214.686 333.344 243.203 327.127C256.887 324.144 270.088 318.127 280.16 308.256L281.079 307.347C285.14 303.29 290.716 297.422 290.326 291.412C290.141 288.521 287.773 288.356 285.358 287.796C284.368 287.567 283.421 287.244 282.602 286.783C283.262 289.624 279.746 293.847 277.93 295.618C274.122 299.337 269.541 302.242 264.694 304.412C255.468 308.549 245.433 310.507 235.443 311.744C224.106 313.151 212.527 313.026 201.275 310.946C191.486 309.135 181.834 305.706 173.412 300.364C169.55 297.918 165.742 295.129 162.52 291.879L161.835 291.19C159.51 288.838 156.803 285.997 155.412 282.911C154.881 282.915 154.356 282.901 153.831 282.866C153.461 282.847 153.261 282.323 153.631 282.127C154.046 281.907 154.461 281.69 154.876 281.475C154.807 281.243 154.746 281.019 154.696 280.79C154.656 280.596 154.861 280.417 155.042 280.525C155.292 280.674 155.532 280.835 155.767 281.005C155.832 280.974 155.897 280.941 155.962 280.906Z" fill="black"/>
<path fill-rule="evenodd" clip-rule="evenodd" d="M180.336 48.8452C256.16 45.1249 307.607 104.783 309.821 128.573C311.357 145.087 310.313 167.111 310.313 181.868C310.313 189.399 314.123 212.296 309.821 223.272C300.243 247.708 289.421 266.848 259.437 266.848C229.452 266.848 183.743 251.342 168.049 231.346C165.181 227.695 129.571 200.968 129.571 179.96C129.571 135.138 126.233 51.4994 180.336 48.8452Z" fill="white"/>
<path fill-rule="evenodd" clip-rule="evenodd" d="M128.61 0.435664C132.931 -0.911787 135.689 1.02816 137.656 4.03383C138.09 3.94952 138.51 3.95495 138.977 4.06712C139.093 4.09522 139.372 4.20054 139.584 4.28319C139.747 4.35168 139.895 4.43456 140.037 4.52241L140.122 4.47801C140.446 4.12498 140.786 3.8031 141.154 3.54358C141.981 2.96077 142.832 2.79099 143.64 2.91071L144.014 2.77351C147.213 1.66149 150.68 2.17771 152.849 4.92669C153.269 5.45778 153.608 6.0491 153.898 6.673C154.548 6.88553 155.158 7.19298 155.684 7.57129C156.053 7.3982 156.444 7.25249 156.86 7.14505C159.221 6.54122 161.7 7.11128 163.623 8.55461C164.561 9.25691 165.247 10.1361 165.771 11.1404C166.365 11.2797 166.952 11.5303 167.504 11.8666C167.978 11.6316 168.458 11.4108 168.951 11.2597C170.753 10.7076 172.685 10.5045 174.56 10.6438C178.6 10.9428 182.507 15.5467 179.807 19.5005L179.722 19.6199C179.381 20.0967 179.083 20.5893 178.806 21.09C179.774 21.5096 180.705 22.0712 181.564 22.7749C185.775 26.2162 186.153 31.5215 185.365 36.5261L185.332 36.7344H185.341C187.579 36.9462 189.509 39.2765 188.187 41.4682L188.123 41.5707C186.336 44.3272 184.801 47.3723 183.094 50.2729C178.365 51.9734 173.807 54.0676 169.514 56.6049C166.841 58.9419 164.296 61.4124 162.056 64.1609C160.938 65.5334 159.91 66.9862 158.965 68.4925C159.721 68.8543 160.654 68.8359 161.442 68.1072C168.456 61.6235 176.928 57.0732 185.95 54.0236C186.601 53.8035 187.027 53.3893 187.266 52.8993C191.27 51.7609 195.346 50.8779 199.463 50.2531C200.597 49.1744 201.786 48.1433 202.916 47.0694C204.358 45.6988 206.164 45.7188 207.514 46.5796C208.184 46.2747 208.868 46.0058 209.565 45.7637L209.998 45.6168C210.178 45.558 210.351 45.4895 210.526 45.4357C215.356 43.9626 219.773 44.5095 224.525 45.72L225.133 45.878C227.347 46.4641 228.742 46.3704 230.885 45.831L231.127 45.7691C233.407 45.1762 235.843 44.7369 238.173 45.3613C240.61 46.015 242.227 47.4682 243.887 49.224L244.053 49.4006C244.827 50.2273 245.275 50.3176 246.288 50.2972L247.375 50.2651C251.474 50.1532 255.487 50.3256 258.558 53.4888C259.693 54.6584 260.912 56.314 261.641 57.8249L261.748 58.0504C261.781 58.1238 261.812 58.1852 261.84 58.24C262.281 58.1692 262.965 57.8912 263.292 57.8277C267.76 56.9634 271.487 58.2955 274.355 61.8075C274.982 62.5761 275.932 64.0853 276.587 64.9149C276.817 65.1095 277.035 65.3183 277.241 65.5374C278.318 66.2236 279.843 66.1802 281.051 66.4208C284.342 67.0745 287.861 68.3232 289.533 71.4482C290.234 72.7522 290.492 74.1792 290.788 75.6046C291.893 76.3298 292.76 77.375 293.433 78.5063C294.252 79.8798 294.6 81.5623 295.542 82.8595C296.227 83.8017 297.273 84.3049 298.268 84.8809L298.649 85.1036C301.597 86.8553 303.906 88.7992 304.877 92.2314L304.959 92.5367C305.118 93.0626 305.67 94.5631 305.189 94.3376C305.603 94.5657 306.309 94.646 306.686 94.7709C308.731 95.446 310.51 96.5373 311.599 98.4531C312.43 99.9116 312.579 101.432 312.816 103.039L312.918 103.688C312.944 103.845 312.975 104.028 313.008 104.204L313.039 104.379L313.046 104.383C313.415 104.542 313.78 104.715 314.137 104.902C315.833 105.898 316.991 107.626 316.991 109.627C316.991 110.598 316.688 111.355 316.245 112.03C316.602 112.571 316.879 113.148 317.09 113.79C317.5 115.044 317.528 116.416 317.391 117.713C317.225 119.27 316.825 120.688 316.351 122.176C316.171 122.75 316.098 123.552 315.823 124.1C316.328 124.742 316.631 125.527 316.536 126.302C316.403 127.41 315.897 128.705 314.89 129.326C314.398 131.747 313.339 134.22 312.297 136.199C312.177 136.429 312.032 136.634 311.871 136.803C312.018 144.704 311.438 152.66 311.398 160.55C311.353 169.14 311.533 177.736 311.831 186.313C312.338 200.533 314.144 215.236 309.937 229.102C306.494 240.451 299.601 250.192 290.357 257.579C280.892 265.136 269.481 269.509 257.365 270.192C251.201 270.536 244.934 269.837 238.969 268.246L238.332 268.073C232.564 266.491 225.882 264.076 221.636 259.846C219.394 257.61 221.66 252.873 224.949 254.176C228.205 255.468 231.127 257.381 234.356 258.727C237.243 259.931 240.257 260.854 243.307 261.532C249.426 262.904 255.914 263.204 262.132 262.352C284.584 259.286 302.078 240.685 305.528 218.629C306.484 212.522 306.465 206.314 306.401 200.141L306.33 193.38C306.276 187.722 306.257 182.062 306.465 176.406C306.731 169.131 307.244 161.858 307.936 154.612L308.296 150.841C308.722 146.429 309.203 141.983 310.031 137.632C309.352 137.667 303.996 128.526 301.024 123.418C299.94 122.559 299.023 121.493 298.668 120.112C298.595 119.824 298.557 119.534 298.535 119.243C297.889 118.231 297.207 117.246 296.49 116.29L296.333 116.219C296.212 116.165 296.118 116.119 296.063 116.088C294.496 115.201 293.186 113.857 292.291 112.3C291.988 111.775 291.742 111.227 291.541 110.667C290.262 109.415 288.924 108.222 287.52 107.102C287.383 106.992 287.238 106.889 287.101 106.781C285.311 106.115 283.741 105.112 282.597 103.667C282.119 103.372 281.638 103.082 281.15 102.799C279.694 102.785 278.221 102.446 276.789 101.859C274.167 100.785 272.074 98.6624 269.439 97.6786C266.654 96.6391 263.72 99.0017 260.763 98.5755C260.008 98.4666 259.257 98.2375 258.561 97.9053C256.894 99.666 255.127 101.326 253.176 102.779C250.347 104.888 247.453 105.852 244.174 106.805C242.549 108.343 240.728 109.835 238.533 110.054C233.454 114.105 228.022 117.522 222.306 120.694C221.387 121.204 220.473 121.434 219.604 121.44C217.812 122.563 215.856 123.427 213.789 124.025C213.14 124.212 212.472 124.251 211.817 124.171L210.022 125.629C208.774 126.643 207.441 127.128 206.167 127.159C205.392 127.752 204.587 128.312 203.761 128.851C202.875 129.43 201.727 129.669 200.571 129.599C198.807 131.32 196.522 131.501 194.607 130.708C194.344 130.862 194.072 131.008 193.769 131.151C193.357 131.346 192.923 131.511 192.485 131.644C190.487 133.791 187.565 134.917 184.636 134.623C182.448 135.959 179.902 136.655 177.414 136.498C177.035 138.401 176.72 140.31 176.455 142.226L176.426 143.63C176.424 143.857 176.424 144.035 176.426 144.151L176.429 144.198C176.672 150.351 176.805 156.508 177.047 162.662L177.068 163.148C177.343 168.524 178.669 178.328 170.746 178.114C167.793 178.033 164.866 175.865 162.567 174.083L162.243 173.83C162.067 173.693 161.885 173.554 161.705 173.412C159.986 173.188 158.293 172.772 156.557 172.708C154.416 172.633 152.165 172.852 150.079 173.336C146.397 174.191 142.835 175.863 140.434 178.893C140.224 179.157 140.029 179.436 139.844 179.715C139.674 180.288 139.384 180.817 138.999 181.278C136.727 186.374 138.039 193.106 140.549 197.768C143.541 203.32 148.275 207.16 154.228 209.091L154.527 209.188C158.594 210.454 160.149 212.91 162.361 216.324C164.43 219.529 166.808 222.514 169.358 225.348C174.297 230.833 181.226 235.36 184.096 242.303C184.676 243.701 183.016 245.016 181.73 244.657C176.694 243.245 173.161 239.667 169.5 236.109C166.964 233.643 164.528 231.081 162.24 228.389C161.762 228.609 161.234 228.757 160.685 228.826C158.257 229.121 155.755 228.998 153.631 227.692C152.652 227.782 151.632 227.442 150.875 226.75C150.18 226.115 149.581 225.425 149.074 224.691C148.305 224.76 147.549 224.781 146.829 224.66C146.481 224.627 146.144 224.538 145.836 224.386C145.262 224.162 144.719 223.813 144.219 223.279C143.208 222.195 142.82 220.665 143.007 219.21C142.807 219.168 142.608 219.118 142.412 219.052C141.065 218.596 140.029 217.694 139.366 216.464C138.181 215.8 137.114 214.903 136.306 213.946C135.322 212.785 134.58 211.474 134.144 210.026C133.693 209.819 133.255 209.575 132.836 209.292C129.832 207.263 128.112 203.457 129.292 199.938L129.332 199.827C129.392 199.669 129.5 199.397 129.633 199.093C129.614 198.845 129.594 198.597 129.58 198.349L129.539 197.598L128.937 197.343C125.935 196.153 123.906 194.545 123.546 191.177C123.471 190.481 123.742 189.77 124.169 189.175L124.168 188.988C123.972 188.887 123.787 188.785 123.623 188.681C121.987 187.637 120.981 185.769 121.094 183.835C121.197 182.076 122.175 180.671 123.275 179.372L123.589 179.009C123.615 178.978 123.644 178.945 123.676 178.909L122.949 178.683C122.477 178.532 122.045 178.383 121.734 178.21C120.532 177.537 119.512 176.628 118.883 175.473C118.792 175.329 118.699 175.19 118.615 175.037C117.803 173.558 117.697 171.664 118.22 170.077C118.282 169.891 118.362 169.716 118.445 169.539C116.233 168.762 114.531 167.156 114.326 164.193C114.245 163.029 114.501 161.868 115.057 160.875C114.934 160.205 114.908 159.512 114.988 158.825C114.21 158.092 113.606 157.209 113.335 156.131C112.825 154.095 113.76 152.158 115.149 150.382C114.635 148.978 114.609 147.393 115.196 145.979C114.97 145.273 114.841 144.527 114.834 143.761C114.819 142.065 115.342 140.648 116.188 139.442C114.999 137.992 114.434 136.065 115.137 134.258C115.637 132.975 116.208 131.8 116.866 130.712C116.52 129.885 116.319 128.958 116.319 127.92C116.319 126.054 117.021 124.575 118.094 123.365C117.628 121.154 118.575 118.462 120.639 117.489C121.417 117.121 122.459 116.738 123.606 116.44C124.037 115.097 124.487 113.76 124.961 112.432C125.709 110.343 126.514 108.282 127.366 106.245C126.875 106.674 126.361 107.074 125.828 107.436C124.145 109.571 121.913 111.421 120.038 112.527C116.32 114.721 112.068 113.42 110.232 109.749C108.507 111.033 106.437 111.794 104.229 111.534C101.725 111.239 99.4348 109.621 98.8094 107.097C98.719 106.732 98.6643 106.337 98.6588 105.94C97.2227 106.96 95.7198 107.899 94.0716 108.436C91.972 109.121 89.8288 107.478 89.5517 105.432C89.4421 104.621 89.5944 103.904 89.9178 103.299L89.713 103.218C89.6789 103.204 89.645 103.19 89.6112 103.174C88.5101 102.659 87.6553 101.716 87.249 100.628C84.8648 101.548 82.1355 100.47 81.379 97.8538C80.4785 94.7445 80.424 91.5952 81.129 88.5662C78.6027 86.7344 76.9567 83.655 76.6766 80.4359C76.472 78.125 77.0247 75.9918 77.9989 74.0195C75.6097 73.1281 74.7883 70.0036 75.9237 67.7527C74.4156 66.8915 73.4319 65.0651 73.4099 63.2874C72.736 62.2692 72.5205 60.9581 73.0794 59.4888C73.8162 57.5528 75.317 55.9333 77.0354 54.6631C76.2859 53.3615 75.7292 51.942 75.3835 50.4751C73.9597 50.0594 72.8106 48.9104 72.5766 47.1851C72.2833 45.022 73.7106 43.1883 75.6317 42.7042C75.8448 42.0453 76.1048 41.4011 76.4266 40.7822C75.4761 38.5362 75.6161 35.6963 76.8417 33.2409C77.9273 31.0697 79.6931 29.7421 81.8192 28.8238C81.2791 26.9771 81.9944 25.1356 83.7952 23.7629C85.994 22.0856 88.4052 20.8033 90.9388 19.8974C90.7139 16.8915 91.9734 13.8131 94.9505 12.7649C95.7463 12.485 96.5749 12.3816 97.4167 12.3851C98.028 11.0589 99.0481 9.98093 100.379 9.02667C102.394 7.58334 106.158 8.46511 107.275 10.7286L107.33 10.845C107.387 10.9732 107.448 11.0906 107.507 11.2148C107.732 10.1158 108.258 9.07767 109.104 8.2266C111.219 6.09892 113.451 6.05901 115.6 6.96888C115.994 5.9936 116.471 5.06649 117.052 4.21849C119.158 1.14197 122.639 0.750209 125.187 2.41622C126.208 1.52028 127.349 0.829556 128.61 0.435664ZM143.67 185.434C147.912 183.779 153.06 184.268 157.251 185.859L157.559 185.98C161.262 187.439 167.277 190.688 168.001 194.842C168.378 196.996 166.327 198.857 164.246 197.723C162.434 196.741 161.419 194.757 159.979 193.321C158.553 191.9 156.957 190.757 155.216 189.753C151.585 187.661 147.767 186.849 143.67 186.244C143.21 186.18 143.335 185.564 143.67 185.434Z" fill="black"/>
<path fill-rule="evenodd" clip-rule="evenodd" d="M276.01 216.013C276.355 215.921 276.661 216.386 276.374 216.638C275.195 217.682 274.449 219.623 273.59 220.948C272.77 222.209 271.984 223.456 271.264 224.774C270.459 226.252 269.68 227.723 269.053 229.286L268.93 229.603C269.117 230.049 269.264 230.488 269.373 230.779L269.403 230.859C270.476 233.589 268.226 236.624 265.688 237.386C261.35 238.692 257.628 235.136 257.524 230.909C257.441 227.584 259.702 224.62 261.997 222.422C264.007 220.497 266.254 218.861 268.771 217.661C269.882 217.132 271.035 216.69 272.24 216.435C273.471 216.173 274.802 216.339 276.01 216.013ZM267.831 228.066C268.151 228.217 268.423 228.583 268.65 229.01C268.537 228.646 268.3 228.288 267.831 228.066ZM270.547 181.854C274.324 184.145 280.08 189.486 276.017 195.166C271.234 200.174 264.346 194.431 260.952 191.836C257.805 189.822 254.268 194.998 257.19 197.348C281.714 215.462 291.666 182.454 272.458 179.16C270.343 178.798 269.557 181.146 270.547 181.854ZM239.495 159.856L240.16 159.8C243.056 159.546 245.987 159.158 248.843 159.811C252.679 160.69 252.397 166.257 248.843 167.282C245.71 168.181 242.239 167.792 239.004 167.822C238.495 167.827 237.989 167.841 237.48 167.848C237.38 169.055 236.982 170.096 236.376 171.135C235.94 171.882 235.386 172.588 234.839 173.251C233.542 174.824 230.478 174.789 229.166 173.251C228.197 172.113 227.426 170.802 227.414 169.26C227.409 168.866 227.459 168.446 227.553 168.035L225.787 168.066C221.468 168.132 217.116 168.101 212.873 167.416C211.364 167.728 210.131 165.012 212.212 164.2C217.874 161.99 224.198 161.34 230.205 160.676C233.293 160.335 236.397 160.1 239.495 159.856ZM287.724 157.574L287.877 157.558C291.626 157.175 295.755 156.513 299.509 156.894C305.113 157.462 305.104 165.022 299.509 165.588C297.453 165.794 295.289 165.695 293.132 165.496C294.235 167.829 292.926 170.618 290.269 170.975C287.799 171.305 285.24 168.911 286.049 166.344L286.087 166.231C286.246 165.784 286.388 165.286 286.556 164.795L285.661 164.719C282.99 164.483 279.282 164.001 278.299 161.897C278.001 161.263 278.07 160.674 278.527 160.132C280.4 157.908 285.017 157.835 287.724 157.574ZM247.886 140.266C250.598 139.283 253.415 141.583 253.766 144.175C254.171 147.162 252.011 149.128 249.276 149.485L249.139 149.501C243.096 150.165 237.101 151.379 231.053 152.065C228.304 152.376 225.536 152.581 222.77 152.655L220.795 152.699C218.373 152.76 215.776 152.815 213.538 151.983L213.547 151.968C212.953 151.796 212.681 150.942 213.341 150.475C215.721 148.796 218.932 148.161 221.702 147.363C224.489 146.559 227.295 145.819 230.111 145.124C236.021 143.666 242.158 142.341 247.886 140.266ZM272.894 140.964C273.611 137.185 278.977 136.78 280.947 139.53C282.221 139.966 284.089 140.421 285.244 140.763C287.262 141.36 289.279 141.953 291.301 142.527C295.488 143.717 299.575 145.225 303.69 146.631C304.114 146.776 303.998 147.314 303.591 147.367C297.844 148.113 292.197 148.46 286.414 148.221L285.23 148.168C280.137 147.97 271.489 148.348 272.894 140.964Z" fill="black"/>
<path d="M341 150C341 125.147 361.147 105 386 105H486C510.853 105 531 125.147 531 150V168C531 192.853 510.853 213 486 213H341V150Z" fill="black"/>
<path d="M331 140C331 115.147 351.147 95 376 95H476C500.853 95 521 115.147 521 140V158C521 182.853 500.853 203 476 203H331V140Z" fill="white"/>
<g filter="url(#filter0_d_106_85)">
<path d="M354.375 138.359L354.422 138.066H356.461L356.402 138.359C356.215 139.438 356.418 140.246 357.012 140.785C357.605 141.316 358.52 141.582 359.754 141.582C360.98 141.582 361.969 141.312 362.719 140.773C363.469 140.234 363.922 139.512 364.078 138.605C364.227 137.801 364.027 137.148 363.48 136.648C362.934 136.148 361.859 135.641 360.258 135.125C358.562 134.57 357.398 133.926 356.766 133.191C356.133 132.457 355.93 131.453 356.156 130.18C356.391 128.836 357.066 127.738 358.184 126.887C359.309 126.035 360.734 125.609 362.461 125.609C364.172 125.609 365.453 126.059 366.305 126.957C367.164 127.855 367.465 129.027 367.207 130.473L367.16 130.719H365.121L365.18 130.473C365.344 129.535 365.172 128.781 364.664 128.211C364.164 127.641 363.324 127.355 362.145 127.355C360.973 127.355 360.059 127.602 359.402 128.094C358.746 128.586 358.34 129.262 358.184 130.121C358.043 130.887 358.227 131.504 358.734 131.973C359.242 132.441 360.309 132.934 361.934 133.449C363.621 133.988 364.797 134.648 365.461 135.43C366.125 136.203 366.336 137.258 366.094 138.594C365.844 140.008 365.121 141.152 363.926 142.027C362.738 142.895 361.242 143.328 359.438 143.328C357.641 143.328 356.277 142.891 355.348 142.016C354.426 141.133 354.102 139.914 354.375 138.359ZM368.203 137.199L368.273 136.824C368.586 135.02 369.348 133.551 370.559 132.418C371.777 131.277 373.234 130.707 374.93 130.707C376.625 130.707 377.879 131.277 378.691 132.418C379.504 133.551 379.75 135.02 379.43 136.824L379.359 137.199C379.047 139.012 378.281 140.488 377.062 141.629C375.852 142.762 374.398 143.328 372.703 143.328C371.008 143.328 369.754 142.762 368.941 141.629C368.129 140.488 367.883 139.012 368.203 137.199ZM370.289 136.824L370.219 137.199C369.992 138.473 370.102 139.539 370.547 140.398C371 141.258 371.816 141.688 372.996 141.688C374.176 141.688 375.141 141.258 375.891 140.398C376.641 139.539 377.125 138.473 377.344 137.199L377.414 136.824C377.633 135.559 377.52 134.496 377.074 133.637C376.629 132.777 375.816 132.348 374.637 132.348C373.457 132.348 372.492 132.777 371.742 133.637C370.992 134.496 370.508 135.559 370.289 136.824ZM384.398 147.875L384.691 146.188C384.879 146.258 385.09 146.309 385.324 146.34C385.559 146.379 385.789 146.398 386.016 146.398C386.562 146.398 387.074 146.168 387.551 145.707C388.035 145.254 388.625 144.344 389.32 142.977L386.918 131.035H388.898L390.316 139.109C390.371 139.414 390.418 139.695 390.457 139.953C390.496 140.211 390.523 140.457 390.539 140.691H390.609C390.719 140.457 390.84 140.211 390.973 139.953C391.105 139.695 391.25 139.414 391.406 139.109L395.508 131.035H397.547L390.199 144.641C389.598 145.758 388.945 146.613 388.242 147.207C387.539 147.809 386.738 148.109 385.84 148.109C385.527 148.109 385.258 148.09 385.031 148.051C384.805 148.012 384.594 147.953 384.398 147.875ZM397.195 137.199L397.266 136.824C397.578 135.02 398.34 133.551 399.551 132.418C400.77 131.277 402.227 130.707 403.922 130.707C405.617 130.707 406.871 131.277 407.684 132.418C408.496 133.551 408.742 135.02 408.422 136.824L408.352 137.199C408.039 139.012 407.273 140.488 406.055 141.629C404.844 142.762 403.391 143.328 401.695 143.328C400 143.328 398.746 142.762 397.934 141.629C397.121 140.488 396.875 139.012 397.195 137.199ZM399.281 136.824L399.211 137.199C398.984 138.473 399.094 139.539 399.539 140.398C399.992 141.258 400.809 141.688 401.988 141.688C403.168 141.688 404.133 141.258 404.883 140.398C405.633 139.539 406.117 138.473 406.336 137.199L406.406 136.824C406.625 135.559 406.512 134.496 406.066 133.637C405.621 132.777 404.809 132.348 403.629 132.348C402.449 132.348 401.484 132.777 400.734 133.637C399.984 134.496 399.5 135.559 399.281 136.824ZM410.543 138.793L411.902 131.035H413.871L412.5 138.816C412.328 139.809 412.426 140.516 412.793 140.938C413.16 141.352 413.746 141.559 414.551 141.559C415.238 141.559 415.879 141.371 416.473 140.996C417.066 140.613 417.566 140.121 417.973 139.52L419.461 131.035H421.441L419.332 143H417.539L417.738 141.406H417.691C417.16 141.977 416.547 142.426 415.852 142.754C415.164 143.074 414.434 143.234 413.66 143.234C412.465 143.234 411.574 142.895 410.988 142.215C410.402 141.535 410.254 140.395 410.543 138.793ZM428.121 143L431.262 125.211H433.23L431.941 132.547C432.449 132.008 433.059 131.582 433.77 131.27C434.48 130.957 435.227 130.801 436.008 130.801C437.133 130.801 437.988 131.141 438.574 131.82C439.16 132.5 439.312 133.637 439.031 135.23L437.66 143H435.691L437.051 135.242C437.23 134.25 437.137 133.543 436.77 133.121C436.41 132.691 435.828 132.477 435.023 132.477C434.328 132.477 433.684 132.668 433.09 133.051C432.496 133.426 431.996 133.91 431.59 134.504L430.102 143H428.121ZM440.812 139.508C441.023 138.305 441.664 137.363 442.734 136.684C443.805 136.004 445.082 135.664 446.566 135.664H449.309L449.473 134.762C449.605 134.02 449.516 133.426 449.203 132.98C448.898 132.535 448.285 132.312 447.363 132.312C446.441 132.312 445.738 132.5 445.254 132.875C444.777 133.242 444.492 133.695 444.398 134.234L444.375 134.34H442.418L442.441 134.199C442.605 133.254 443.164 132.438 444.117 131.75C445.078 131.055 446.273 130.707 447.703 130.707C449.117 130.707 450.152 131.043 450.809 131.715C451.473 132.379 451.684 133.395 451.441 134.762L450.48 140.188C450.395 140.695 450.348 141.176 450.34 141.629C450.34 142.074 450.383 142.469 450.469 142.812L450.434 143H448.535C448.457 142.805 448.402 142.551 448.371 142.238C448.34 141.926 448.34 141.613 448.371 141.301C447.996 141.801 447.457 142.246 446.754 142.637C446.051 143.02 445.199 143.211 444.199 143.211C443.051 143.211 442.145 142.895 441.48 142.262C440.816 141.621 440.594 140.703 440.812 139.508ZM442.793 139.402C442.676 140.105 442.789 140.652 443.133 141.043C443.477 141.426 444.066 141.617 444.902 141.617C445.754 141.617 446.578 141.324 447.375 140.738C448.172 140.145 448.629 139.512 448.746 138.84L449.062 137.105H446.555C445.445 137.105 444.57 137.312 443.93 137.727C443.297 138.141 442.918 138.699 442.793 139.402ZM453.516 131.035H455.484L456.926 139.18C456.98 139.492 457.02 139.785 457.043 140.059C457.074 140.324 457.098 140.535 457.113 140.691H457.172C457.234 140.535 457.332 140.324 457.465 140.059C457.598 139.785 457.742 139.492 457.898 139.18L462.164 131.035H464.215L457.547 143H455.965L453.516 131.035ZM463.898 137.199L463.969 136.824C464.281 135.02 465.027 133.551 466.207 132.418C467.387 131.277 468.781 130.707 470.391 130.707C472 130.707 473.141 131.238 473.812 132.301C474.492 133.355 474.672 134.797 474.352 136.625L474.199 137.434H465.047L465.328 135.84H472.5L472.547 135.605C472.703 134.715 472.59 133.949 472.207 133.309C471.832 132.668 471.152 132.348 470.168 132.348C469.027 132.348 468.098 132.777 467.379 133.637C466.66 134.488 466.191 135.551 465.973 136.824L465.902 137.199C465.676 138.48 465.785 139.551 466.23 140.41C466.684 141.262 467.523 141.688 468.75 141.688C469.523 141.688 470.215 141.523 470.824 141.195C471.441 140.859 471.961 140.457 472.383 139.988L473.473 141.031C473.012 141.594 472.348 142.117 471.48 142.602C470.613 143.086 469.609 143.328 468.469 143.328C466.648 143.328 465.352 142.762 464.578 141.629C463.805 140.488 463.578 139.012 463.898 137.199ZM354.152 171L357.293 153.211H359.262L357.984 160.477C358.43 159.969 358.98 159.562 359.637 159.258C360.293 158.953 361.039 158.801 361.875 158.801C363.391 158.801 364.496 159.367 365.191 160.5C365.887 161.625 366.082 163.059 365.777 164.801L365.707 165.176C365.395 166.918 364.691 168.363 363.598 169.512C362.504 170.66 361.199 171.234 359.684 171.234C358.84 171.234 358.129 171.062 357.551 170.719C356.98 170.367 356.582 169.941 356.355 169.441H356.297L355.957 171H354.152ZM356.742 167.508C356.898 168.055 357.207 168.539 357.668 168.961C358.137 169.383 358.77 169.594 359.566 169.594C360.707 169.594 361.625 169.172 362.32 168.328C363.016 167.477 363.473 166.426 363.691 165.176L363.762 164.801C363.98 163.551 363.891 162.512 363.492 161.684C363.094 160.855 362.312 160.441 361.148 160.441C360.375 160.441 359.676 160.652 359.051 161.074C358.434 161.496 357.957 161.977 357.621 162.516L356.742 167.508ZM367.547 165.199L367.617 164.824C367.93 163.02 368.676 161.551 369.855 160.418C371.035 159.277 372.43 158.707 374.039 158.707C375.648 158.707 376.789 159.238 377.461 160.301C378.141 161.355 378.32 162.797 378 164.625L377.848 165.434H368.695L368.977 163.84H376.148L376.195 163.605C376.352 162.715 376.238 161.949 375.855 161.309C375.48 160.668 374.801 160.348 373.816 160.348C372.676 160.348 371.746 160.777 371.027 161.637C370.309 162.488 369.84 163.551 369.621 164.824L369.551 165.199C369.324 166.48 369.434 167.551 369.879 168.41C370.332 169.262 371.172 169.688 372.398 169.688C373.172 169.688 373.863 169.523 374.473 169.195C375.09 168.859 375.609 168.457 376.031 167.988L377.121 169.031C376.66 169.594 375.996 170.117 375.129 170.602C374.262 171.086 373.258 171.328 372.117 171.328C370.297 171.328 369 170.762 368.227 169.629C367.453 168.488 367.227 167.012 367.547 165.199ZM379.688 165.199L379.758 164.824C380.07 163.02 380.816 161.551 381.996 160.418C383.176 159.277 384.57 158.707 386.18 158.707C387.789 158.707 388.93 159.238 389.602 160.301C390.281 161.355 390.461 162.797 390.141 164.625L389.988 165.434H380.836L381.117 163.84H388.289L388.336 163.605C388.492 162.715 388.379 161.949 387.996 161.309C387.621 160.668 386.941 160.348 385.957 160.348C384.816 160.348 383.887 160.777 383.168 161.637C382.449 162.488 381.98 163.551 381.762 164.824L381.691 165.199C381.465 166.48 381.574 167.551 382.02 168.41C382.473 169.262 383.312 169.688 384.539 169.688C385.312 169.688 386.004 169.523 386.613 169.195C387.23 168.859 387.75 168.457 388.172 167.988L389.262 169.031C388.801 169.594 388.137 170.117 387.27 170.602C386.402 171.086 385.398 171.328 384.258 171.328C382.438 171.328 381.141 170.762 380.367 169.629C379.594 168.488 379.367 167.012 379.688 165.199ZM391.535 171L393.645 159.035H395.438L395.238 160.617H395.297C395.82 160.047 396.426 159.602 397.113 159.281C397.809 158.961 398.543 158.801 399.316 158.801C400.512 158.801 401.402 159.141 401.988 159.82C402.574 160.5 402.727 161.637 402.445 163.23L401.074 171H399.105L400.477 163.242C400.648 162.25 400.551 161.543 400.184 161.121C399.824 160.691 399.242 160.477 398.438 160.477C397.742 160.477 397.098 160.668 396.504 161.051C395.91 161.426 395.41 161.91 395.004 162.504L393.516 171H391.535ZM409.746 171L412.887 153.211H414.855L413.566 160.547C414.074 160.008 414.684 159.582 415.395 159.27C416.105 158.957 416.852 158.801 417.633 158.801C418.758 158.801 419.613 159.141 420.199 159.82C420.785 160.5 420.938 161.637 420.656 163.23L419.285 171H417.316L418.676 163.242C418.855 162.25 418.762 161.543 418.395 161.121C418.035 160.691 417.453 160.477 416.648 160.477C415.953 160.477 415.309 160.668 414.715 161.051C414.121 161.426 413.621 161.91 413.215 162.504L411.727 171H409.746ZM422.789 165.199L422.859 164.824C423.172 163.02 423.918 161.551 425.098 160.418C426.277 159.277 427.672 158.707 429.281 158.707C430.891 158.707 432.031 159.238 432.703 160.301C433.383 161.355 433.562 162.797 433.242 164.625L433.09 165.434H423.938L424.219 163.84H431.391L431.438 163.605C431.594 162.715 431.48 161.949 431.098 161.309C430.723 160.668 430.043 160.348 429.059 160.348C427.918 160.348 426.988 160.777 426.27 161.637C425.551 162.488 425.082 163.551 424.863 164.824L424.793 165.199C424.566 166.48 424.676 167.551 425.121 168.41C425.574 169.262 426.414 169.688 427.641 169.688C428.414 169.688 429.105 169.523 429.715 169.195C430.332 168.859 430.852 168.457 431.273 167.988L432.363 169.031C431.902 169.594 431.238 170.117 430.371 170.602C429.504 171.086 428.5 171.328 427.359 171.328C425.539 171.328 424.242 170.762 423.469 169.629C422.695 168.488 422.469 167.012 422.789 165.199ZM434.637 171L436.746 159.035H438.539L438.352 160.594H438.398C438.797 160.086 439.281 159.645 439.852 159.27C440.43 158.895 441.07 158.707 441.773 158.707C441.938 158.707 442.109 158.727 442.289 158.766C442.469 158.797 442.594 158.828 442.664 158.859L442.348 160.688C442.207 160.656 442.051 160.633 441.879 160.617C441.707 160.602 441.516 160.594 441.305 160.594C440.641 160.594 440.027 160.777 439.465 161.145C438.91 161.512 438.457 161.977 438.105 162.539L436.617 171H434.637ZM442.5 165.199L442.57 164.824C442.883 163.02 443.629 161.551 444.809 160.418C445.988 159.277 447.383 158.707 448.992 158.707C450.602 158.707 451.742 159.238 452.414 160.301C453.094 161.355 453.273 162.797 452.953 164.625L452.801 165.434H443.648L443.93 163.84H451.102L451.148 163.605C451.305 162.715 451.191 161.949 450.809 161.309C450.434 160.668 449.754 160.348 448.77 160.348C447.629 160.348 446.699 160.777 445.98 161.637C445.262 162.488 444.793 163.551 444.574 164.824L444.504 165.199C444.277 166.48 444.387 167.551 444.832 168.41C445.285 169.262 446.125 169.688 447.352 169.688C448.125 169.688 448.816 169.523 449.426 169.195C450.043 168.859 450.562 168.457 450.984 167.988L452.074 169.031C451.613 169.594 450.949 170.117 450.082 170.602C449.215 171.086 448.211 171.328 447.07 171.328C445.25 171.328 443.953 170.762 443.18 169.629C442.406 168.488 442.18 167.012 442.5 165.199ZM461.977 169.945C462.047 169.586 462.219 169.277 462.492 169.02C462.766 168.762 463.117 168.633 463.547 168.633C463.984 168.633 464.297 168.762 464.484 169.02C464.672 169.277 464.73 169.586 464.66 169.945C464.598 170.305 464.43 170.613 464.156 170.871C463.883 171.129 463.527 171.258 463.09 171.258C462.66 171.258 462.352 171.129 462.164 170.871C461.977 170.613 461.914 170.305 461.977 169.945ZM461.156 158.191L461.203 157.957C461.43 156.652 462.02 155.617 462.973 154.852C463.926 154.086 465.105 153.703 466.512 153.703C467.926 153.703 468.961 154.098 469.617 154.887C470.273 155.676 470.488 156.715 470.262 158.004C470.074 159.066 469.652 159.988 468.996 160.77C468.34 161.543 467.672 162.207 466.992 162.762C466.227 163.395 465.711 163.965 465.445 164.473C465.188 164.98 465.012 165.512 464.918 166.066L464.895 166.184H462.902L462.926 166.066C463.09 165.105 463.352 164.336 463.711 163.758C464.078 163.172 464.691 162.516 465.551 161.789C466.293 161.141 466.895 160.551 467.355 160.02C467.824 159.48 468.133 158.809 468.281 158.004C468.422 157.207 468.324 156.578 467.988 156.117C467.66 155.656 467.07 155.426 466.219 155.426C465.375 155.426 464.691 155.645 464.168 156.082C463.645 156.52 463.312 157.145 463.172 157.957L463.125 158.191H461.156Z" fill="black"/>
</g>
<defs>
<filter id="filter0_d_106_85" x="349.965" y="125.211" width="128.867" height="54.1172" filterUnits="userSpaceOnUse" color-interpolation-filters="sRGB">
<feFlood flood-opacity="0" result="BackgroundImageFix"/>
<feColorMatrix in="SourceAlpha" type="matrix" values="0 0 0 0 0 0 0 0 0 0 0 0 0 0 0 0 0 0 127 0" result="hardAlpha"/>
<feOffset dy="4"/>
<feGaussianBlur stdDeviation="2"/>
<feComposite in2="hardAlpha" operator="out"/>
<feColorMatrix type="matrix" values="0 0 0 0 0 0 0 0 0 0 0 0 0 0 0 0 0 0 0.25 0"/>
<feBlend mode="normal" in2="BackgroundImageFix" result="effect1_dropShadow_106_85"/>
<feBlend mode="normal" in="SourceGraphic" in2="effect1_dropShadow_106_85" result="shape"/>
</filter>
</defs>
</svg>
