<svg width="199" height="64" viewBox="0 0 199 64" fill="none" xmlns="http://www.w3.org/2000/svg">
<g filter="url(#filter0_d_2_34)">
<path d="M36.642 23.7386H28.1193C28.0057 22.8636 27.7727 22.0739 27.4205 21.3693C27.0682 20.6648 26.6023 20.0625 26.0227 19.5625C25.4432 19.0625 24.7557 18.6818 23.9602 18.4205C23.1761 18.1477 22.3068 18.0114 21.3523 18.0114C19.6591 18.0114 18.1989 18.4261 16.9716 19.2557C15.7557 20.0852 14.8182 21.2841 14.1591 22.8523C13.5114 24.4205 13.1875 26.3182 13.1875 28.5455C13.1875 30.8636 13.517 32.8068 14.1761 34.375C14.8466 35.9318 15.7841 37.108 16.9886 37.9034C18.2045 38.6875 19.642 39.0795 21.3011 39.0795C22.233 39.0795 23.0795 38.9602 23.8409 38.7216C24.6136 38.483 25.2898 38.1364 25.8693 37.6818C26.4602 37.2159 26.9432 36.6534 27.3182 35.9943C27.7045 35.3239 27.9716 34.5682 28.1193 33.7273L36.642 33.7784C36.4943 35.3239 36.0455 36.8466 35.2955 38.3466C34.5568 39.8466 33.5398 41.2159 32.2443 42.4545C30.9489 43.6818 29.3693 44.6591 27.5057 45.3864C25.6534 46.1136 23.5284 46.4773 21.1307 46.4773C17.9716 46.4773 15.142 45.7841 12.642 44.3977C10.1534 43 8.1875 40.9659 6.74432 38.2955C5.30114 35.625 4.57955 32.375 4.57955 28.5455C4.57955 24.7045 5.3125 21.4489 6.77841 18.7784C8.24432 16.108 10.2273 14.0795 12.7273 12.6932C15.2273 11.3068 18.0284 10.6136 21.1307 10.6136C23.2443 10.6136 25.1989 10.9091 26.9943 11.5C28.7898 12.0795 30.3693 12.9318 31.733 14.0568C33.0966 15.1705 34.2045 16.5398 35.0568 18.1648C35.9091 19.7898 36.4375 21.6477 36.642 23.7386ZM49.8054 31.0682V46H41.4702V11.0909H49.5327V24.625H49.8224C50.4134 23.0114 51.3793 21.75 52.7202 20.8409C54.0724 19.9318 55.7259 19.4773 57.6804 19.4773C59.5213 19.4773 61.1236 19.8864 62.4872 20.7045C63.8509 21.5114 64.9077 22.6534 65.6577 24.1307C66.419 25.608 66.794 27.3352 66.7827 29.3125V46H58.4474V30.9489C58.4588 29.4943 58.0952 28.358 57.3565 27.5398C56.6179 26.7216 55.5781 26.3125 54.2372 26.3125C53.3622 26.3125 52.5895 26.5057 51.919 26.892C51.2599 27.267 50.7429 27.8068 50.3679 28.5114C50.0043 29.2159 49.8168 30.0682 49.8054 31.0682ZM71.9858 46V19.8182H80.321V46H71.9858ZM76.1619 16.767C74.9915 16.767 73.9858 16.3807 73.1449 15.608C72.304 14.8239 71.8835 13.8807 71.8835 12.7784C71.8835 11.6875 72.304 10.7557 73.1449 9.98295C73.9858 9.19886 74.9915 8.80682 76.1619 8.80682C77.3438 8.80682 78.3494 9.19886 79.179 9.98295C80.0199 10.7557 80.4403 11.6875 80.4403 12.7784C80.4403 13.8807 80.0199 14.8239 79.179 15.608C78.3494 16.3807 77.3438 16.767 76.1619 16.767ZM85.6264 55.8182V19.8182H93.8764V24.3011H94.1321C94.473 23.5057 94.956 22.7386 95.581 22C96.2173 21.2614 97.0241 20.6591 98.0014 20.1932C98.9901 19.7159 100.172 19.4773 101.547 19.4773C103.365 19.4773 105.064 19.9545 106.643 20.9091C108.234 21.8636 109.518 23.3352 110.496 25.3239C111.473 27.3125 111.962 29.8466 111.962 32.9261C111.962 35.892 111.49 38.375 110.547 40.375C109.615 42.375 108.354 43.875 106.763 44.875C105.183 45.875 103.428 46.375 101.496 46.375C100.178 46.375 99.0355 46.1591 98.0696 45.7273C97.1037 45.2955 96.2912 44.7273 95.6321 44.0227C94.9844 43.3182 94.4844 42.5625 94.1321 41.7557H93.9616V55.8182H85.6264ZM93.7912 32.9091C93.7912 34.3182 93.9787 35.5455 94.3537 36.5909C94.7401 37.6364 95.2912 38.4489 96.0071 39.0284C96.7344 39.5966 97.6037 39.8807 98.6151 39.8807C99.6378 39.8807 100.507 39.5966 101.223 39.0284C101.939 38.4489 102.479 37.6364 102.842 36.5909C103.217 35.5455 103.405 34.3182 103.405 32.9091C103.405 31.5 103.217 30.2784 102.842 29.2443C102.479 28.2102 101.939 27.4091 101.223 26.8409C100.518 26.2727 99.6491 25.9886 98.6151 25.9886C97.5923 25.9886 96.723 26.267 96.0071 26.8239C95.2912 27.3807 94.7401 28.1761 94.3537 29.2102C93.9787 30.2443 93.7912 31.4773 93.7912 32.9091Z" fill="white"/>
</g>
<g filter="url(#filter1_d_2_34)">
<path d="M142.198 34.6989V19.8182H150.516V46H142.573V41.125H142.3C141.721 42.7273 140.732 44 139.335 44.9432C137.948 45.875 136.272 46.3409 134.306 46.3409C132.522 46.3409 130.954 45.9318 129.602 45.1136C128.249 44.2955 127.198 43.1534 126.448 41.6875C125.698 40.2102 125.317 38.483 125.306 36.5057V19.8182H133.641V34.8693C133.653 36.2898 134.028 37.4091 134.766 38.2273C135.505 39.0455 136.511 39.4545 137.783 39.4545C138.613 39.4545 139.357 39.2727 140.016 38.9091C140.687 38.5341 141.215 37.9943 141.602 37.2898C141.999 36.5739 142.198 35.7102 142.198 34.6989ZM155.822 46V19.8182H163.918V24.5909H164.191C164.668 22.8636 165.447 21.5795 166.526 20.7386C167.606 19.8864 168.862 19.4602 170.293 19.4602C170.68 19.4602 171.077 19.4886 171.487 19.5455C171.896 19.5909 172.276 19.6648 172.629 19.767V27.0114C172.231 26.875 171.708 26.767 171.06 26.6875C170.424 26.608 169.856 26.5682 169.356 26.5682C168.367 26.5682 167.475 26.7898 166.68 27.233C165.896 27.6648 165.276 28.2727 164.822 29.0568C164.379 29.8295 164.157 30.7386 164.157 31.7841V46H155.822ZM194.673 11.0909V46H186.337V11.0909H194.673Z" fill="#FF5E3A"/>
</g>
<path d="M188.9 24.7282C188.426 24.0039 187.813 23.3801 187.098 22.8925C186.382 22.4048 185.578 22.0629 184.73 21.8862C183.883 21.7095 183.008 21.7015 182.158 21.8627C181.307 22.0238 180.496 22.351 179.772 22.8254L171.5 28.2452C170.037 29.2033 169.015 30.7033 168.658 32.4152C168.301 34.1271 168.639 35.9106 169.597 37.3734C170.555 38.8362 172.055 39.8584 173.767 40.2152C175.479 40.5721 177.263 40.2343 178.725 39.2761L179.705 38.6333C179.705 38.6333 179.554 37.5327 179.201 36.9945C178.849 36.4547 177.899 35.8761 177.899 35.8761L176.919 36.5189C176.188 36.998 175.296 37.167 174.44 36.9885C173.584 36.8101 172.834 36.2988 172.354 35.5673C171.875 34.8358 171.706 33.9439 171.885 33.0878C172.063 32.2317 172.574 31.4816 173.306 31.0024L181.58 25.583C182.311 25.1041 183.203 24.9353 184.059 25.1139C184.915 25.2924 185.665 25.8037 186.144 26.5352C186.623 27.2667 186.791 28.1585 186.613 29.0144C186.434 29.8703 185.923 30.6202 185.191 31.0991L183.813 32.0021C183.813 32.0021 184.497 32.6801 184.89 33.2823C185.286 33.8852 185.619 34.7594 185.619 34.7594L186.997 33.8564C187.722 33.382 188.346 32.7695 188.833 32.054C189.321 31.3385 189.663 30.534 189.839 29.6864C190.016 28.8387 190.024 27.9646 189.863 27.1139C189.702 26.2631 189.375 25.4525 188.9 24.7282Z" fill="white"/>
<path d="M183.339 34.2841C182.864 33.5595 182.252 32.9355 181.536 32.4477C180.821 31.9599 180.016 31.6179 179.168 31.4412C178.32 31.2644 177.446 31.2565 176.595 31.4177C175.744 31.579 174.933 31.9063 174.209 32.381L173.154 33.0736C173.154 33.0736 173.384 34.1319 173.737 34.6685C174.09 35.2067 174.96 35.8309 174.96 35.8309L176.015 35.1383C176.377 34.901 176.783 34.7374 177.208 34.6568C177.634 34.5763 178.071 34.5803 178.495 34.6686C178.918 34.757 179.321 34.928 179.679 35.1718C180.036 35.4157 180.343 35.7276 180.58 36.0898C180.817 36.452 180.981 36.8574 181.061 37.2829C181.142 37.7083 181.138 38.1454 181.05 38.5693C180.961 38.9932 180.79 39.3956 180.546 39.7534C180.303 40.1112 179.991 40.4175 179.628 40.6547L171.355 46.0741C170.993 46.3113 170.587 46.4748 170.162 46.5553C169.736 46.6357 169.299 46.6317 168.876 46.5432C168.02 46.3647 167.27 45.8534 166.791 45.1219C166.312 44.3905 166.143 43.4987 166.322 42.6428C166.5 41.7869 167.011 41.037 167.743 40.558L169.262 39.563C169.262 39.563 168.571 38.8145 168.217 38.276C167.866 37.7382 167.454 36.8054 167.454 36.8054L165.937 37.8008C165.202 38.2703 164.568 38.881 164.071 39.5974C163.573 40.3138 163.223 41.1217 163.04 41.9744C162.858 42.8271 162.846 43.7075 163.006 44.5648C163.165 45.4221 163.494 46.2391 163.971 46.9686C164.449 47.6981 165.067 48.3256 165.789 48.8148C166.511 49.3039 167.323 49.645 168.177 49.8182C169.032 49.9915 169.912 49.9935 170.768 49.8241C171.623 49.6547 172.437 49.3173 173.161 48.8314L181.434 43.412C182.159 42.9376 182.783 42.3251 183.27 41.6096C183.758 40.8941 184.1 40.0896 184.276 39.242C184.453 38.3943 184.461 37.5202 184.3 36.6695C184.139 35.8187 183.813 35.0084 183.339 34.2841Z" fill="white"/>
<defs>
<filter id="filter0_d_2_34" x="0.579559" y="8.80682" width="115.382" height="55.0114" filterUnits="userSpaceOnUse" color-interpolation-filters="sRGB">
<feFlood flood-opacity="0" result="BackgroundImageFix"/>
<feColorMatrix in="SourceAlpha" type="matrix" values="0 0 0 0 0 0 0 0 0 0 0 0 0 0 0 0 0 0 127 0" result="hardAlpha"/>
<feOffset dy="4"/>
<feGaussianBlur stdDeviation="2"/>
<feComposite in2="hardAlpha" operator="out"/>
<feColorMatrix type="matrix" values="0 0 0 0 0 0 0 0 0 0 0 0 0 0 0 0 0 0 0.25 0"/>
<feBlend mode="normal" in2="BackgroundImageFix" result="effect1_dropShadow_2_34"/>
<feBlend mode="normal" in="SourceGraphic" in2="effect1_dropShadow_2_34" result="shape"/>
</filter>
<filter id="filter1_d_2_34" x="121.306" y="11.0909" width="77.3665" height="43.25" filterUnits="userSpaceOnUse" color-interpolation-filters="sRGB">
<feFlood flood-opacity="0" result="BackgroundImageFix"/>
<feColorMatrix in="SourceAlpha" type="matrix" values="0 0 0 0 0 0 0 0 0 0 0 0 0 0 0 0 0 0 127 0" result="hardAlpha"/>
<feOffset dy="4"/>
<feGaussianBlur stdDeviation="2"/>
<feComposite in2="hardAlpha" operator="out"/>
<feColorMatrix type="matrix" values="0 0 0 0 0 0 0 0 0 0 0 0 0 0 0 0 0 0 0.25 0"/>
<feBlend mode="normal" in2="BackgroundImageFix" result="effect1_dropShadow_2_34"/>
<feBlend mode="normal" in="SourceGraphic" in2="effect1_dropShadow_2_34" result="shape"/>
</filter>
</defs>
</svg>
