<svg width="316" height="316" viewBox="0 0 316 316" fill="none" xmlns="http://www.w3.org/2000/svg">
<g filter="url(#filter0_d_205_4)">
<path d="M158 171.167C161.492 171.167 164.841 169.779 167.31 167.31C169.779 164.841 171.167 161.492 171.167 158V26.3333C171.167 22.8413 169.779 19.4923 167.31 17.0231C164.841 14.5539 161.492 13.1667 158 13.1667C154.508 13.1667 151.159 14.5539 148.69 17.0231C146.221 19.4923 144.833 22.8413 144.833 26.3333V158C144.833 161.492 146.221 164.841 148.69 167.31C151.159 169.779 154.508 171.167 158 171.167Z" fill="#FF5E3A"/>
<path d="M218.435 40.9483C215.327 39.342 211.708 39.0361 208.375 40.0978C205.041 41.1596 202.266 43.5021 200.66 46.61C199.054 49.7179 198.748 53.3366 199.809 56.6701C200.871 60.0035 203.214 62.7787 206.322 64.385C227.302 75.2168 244.035 92.7837 253.834 114.266C263.633 135.748 265.93 159.9 260.357 182.844C254.783 205.788 241.663 226.195 223.101 240.788C204.538 255.381 181.612 263.314 158 263.314C134.388 263.314 111.462 255.381 92.8994 240.788C74.3373 226.195 61.2165 205.788 55.6432 182.844C50.0698 159.9 52.367 135.748 62.1661 114.266C71.9652 92.7837 88.6979 75.2168 109.678 64.385C111.217 63.5896 112.584 62.4989 113.702 61.1752C114.819 59.8515 115.665 58.3206 116.19 56.6701C116.716 55.0195 116.912 53.2816 116.766 51.5554C116.62 49.8293 116.135 48.1489 115.34 46.61C114.545 45.0711 113.454 43.704 112.13 42.5866C110.806 41.4693 109.276 40.6236 107.625 40.0978C105.974 39.5721 104.237 39.3766 102.51 39.5226C100.784 39.6685 99.1039 40.153 97.565 40.9483C71.3461 54.494 50.438 76.4552 38.1961 103.308C25.9542 130.16 23.0883 160.347 30.0583 189.023C37.0283 217.699 53.4302 243.203 76.6316 261.44C99.833 279.678 128.489 289.592 158 289.592C187.511 289.592 216.167 279.678 239.368 261.44C262.57 243.203 278.972 217.699 285.942 189.023C292.912 160.347 290.046 130.16 277.804 103.308C265.562 76.4552 244.654 54.494 218.435 40.9483Z" fill="#FF5E3A"/>
</g>
<defs>
<filter id="filter0_d_205_4" x="22.3332" y="13.1667" width="271.334" height="284.426" filterUnits="userSpaceOnUse" color-interpolation-filters="sRGB">
<feFlood flood-opacity="0" result="BackgroundImageFix"/>
<feColorMatrix in="SourceAlpha" type="matrix" values="0 0 0 0 0 0 0 0 0 0 0 0 0 0 0 0 0 0 127 0" result="hardAlpha"/>
<feOffset dy="4"/>
<feGaussianBlur stdDeviation="2"/>
<feComposite in2="hardAlpha" operator="out"/>
<feColorMatrix type="matrix" values="0 0 0 0 0 0 0 0 0 0 0 0 0 0 0 0 0 0 0.25 0"/>
<feBlend mode="normal" in2="BackgroundImageFix" result="effect1_dropShadow_205_4"/>
<feBlend mode="normal" in="SourceGraphic" in2="effect1_dropShadow_205_4" result="shape"/>
</filter>
</defs>
</svg>
