<svg width="459" height="672" viewBox="0 0 459 672" fill="none" xmlns="http://www.w3.org/2000/svg">
<path fill-rule="evenodd" clip-rule="evenodd" d="M247.094 433.286C247.861 441.266 246.295 448.886 242.563 455.33L241.349 457.426L243.66 458.231C247.865 459.7 252.541 460.414 257.956 460.414C263.528 460.414 269.323 459.639 273.98 459.016L276.962 458.618L275.497 456.033C274.319 453.954 274.102 451.437 273.871 448.77C273.808 448.055 273.744 447.315 273.66 446.581C269.248 407.208 263.671 367.321 258.277 328.747C256.858 318.596 255.39 308.1 253.967 297.776L249.882 297.932C248.784 317.043 247.718 336.477 246.687 355.271C246.233 363.535 245.78 371.8 245.322 380.063C243.693 400.955 244.255 417.871 247.094 433.286ZM248.76 669.394C242.762 669.394 236.753 668.771 230.9 667.541C212.583 663.702 195.942 654.645 181.783 646.458C181.059 646.049 180.326 645.639 179.573 645.219C174.029 642.122 167.131 638.27 162.807 633.57C158.063 628.414 157.247 623.275 160.238 617.4L160.711 616.47L160.216 615.552C157.12 609.797 157.351 602.677 160.777 598.237L163.657 594.507L158.922 595.009C154.148 595.515 149.337 596.2 144.683 596.862C139.52 597.598 134.181 598.358 128.922 598.867L127.461 599.009L127.125 600.415C126.938 601.196 126.708 601.673 125.085 601.673C123.678 601.673 121.788 601.26 119.788 600.826C117.304 600.287 114.49 599.674 111.776 599.674C110.582 599.674 109.509 599.788 108.492 600.021L107.901 600.157L107.481 600.587C107.213 600.862 106.754 601.032 106.287 601.032C105.934 601.032 105.606 600.935 105.385 600.763L104.722 600.245L103.881 600.337C89.2221 601.945 76.5819 604.765 65.2398 608.958L65.1878 608.978L64.9423 609.083C60.8401 610.851 56.6005 612.679 52.7384 612.679C49.9156 612.679 47.6223 611.719 45.5225 609.661L44.9302 609.079L44.0924 609.071C35.6012 608.994 31.7218 599.107 31.1842 592.481L31.1175 591.647L30.4704 591.104C15.6705 578.706 6.93377 561.676 3.76006 539.044C0.867841 518.428 3.0877 496.692 5.64108 478.149C11.5469 430.094 17.7062 387.013 33.3627 346.155L34.0937 344.245L32.1447 343.546C25.3824 341.119 20.2143 338.226 16.3455 334.697L16.0774 334.452L15.7398 334.314C10.1942 332.04 7.47806 323.642 6.77769 321.123L6.72166 320.92L6.62294 320.732C5.49166 318.566 5.23152 315.551 5.90789 312.462L5.97993 312.129L5.93857 311.791C5.57304 308.858 6.78569 305.792 8.07038 302.545C8.65737 301.062 9.26302 299.529 9.70593 298.001C11.2294 293.638 12.7502 289.198 14.223 284.902C17.5248 275.265 20.94 265.3 24.5779 255.606L25.0742 254.28L23.9789 253.367C22.1073 251.807 22.7329 249.97 25.4304 245.58C26.0681 244.542 26.6711 243.56 27.1286 242.594C30.5153 236.739 34.193 231.057 38.1479 225.569L38.2266 225.46L38.2893 225.342C58.0626 188.473 93.1362 168.169 137.049 168.169L137.944 168.17L138.439 167.873C146.669 162.931 152.544 154.453 156.401 141.953L156.524 141.556L156.476 141.141C156.344 139.99 156.199 138.479 156.249 137.013C156.374 133.302 157.831 129.989 160.247 127.926C164.828 124.01 171.784 123.682 178.515 123.682L179.483 123.683C188.09 123.709 194.167 125.2 198.606 128.379C203.764 132.073 206.615 138.036 207.322 146.609C207.532 149.174 207.526 151.832 207.519 154.401L207.518 155.119L207.604 155.403C208.202 157.386 208.921 159.329 209.758 161.224L210.591 163.099L212.487 162.254C213.713 161.707 215.267 161.425 217.239 161.393C217.807 161.381 218.362 161.374 218.921 161.374C223.501 161.374 228.398 161.792 233.137 162.195C236.705 162.499 240.397 162.814 243.969 162.954L244.019 162.955L244.734 162.953C253.417 162.953 259.712 164.316 264.544 167.244C269.746 170.395 273.487 175.454 276.316 183.163C291.488 227.354 297.725 274.952 303.227 316.946C306.348 338.906 307.297 361.419 308.215 383.191C309.184 406.171 310.186 429.934 313.734 453.162L314.015 454.999L315.899 454.878C324.188 454.343 333.148 453.193 342.634 451.975C357.046 450.123 371.948 448.21 386.354 448.21C406.497 448.21 421.769 452.167 433.038 460.306C440.893 467.695 444.956 477.702 444.789 489.25C444.553 505.565 435.909 523.604 422.768 535.204L422.719 535.249C406.107 550.916 375.787 564.505 332.598 575.637C292.885 585.875 251.806 591.438 230.852 593.843L225.666 594.438L229.875 597.477C231.439 598.609 233.024 599.713 234.628 600.787L235.591 601.43L236.648 600.947C239.659 599.569 241.571 599.279 242.646 599.279C243.6 599.279 244.75 599.486 244.812 600.472C244.854 601.116 244.395 602.074 243.424 602.196L238.269 602.837L242.478 605.835C245.289 607.836 249.483 610.248 254.34 613.043C270.23 622.182 294.243 635.996 290.113 648.127L289.842 648.923L290.225 649.674C291.335 651.846 291.43 653.862 290.514 655.838C288.553 660.071 282.421 663.285 277.211 664.591L277.123 664.613L277.035 664.644C267.943 667.801 258.385 669.407 248.76 669.394Z" fill="white"/>
<path fill-rule="evenodd" clip-rule="evenodd" d="M231.323 591.467C231.95 590.831 232.212 589.997 231.628 589.018C229.366 586.134 224.675 588.105 221.756 588.772C220.65 587.865 219.566 586.931 218.506 585.969C218.872 583.702 216.141 582.193 215.019 580.444C213.917 579.155 212.881 577.692 211.56 576.611C208.341 574.104 203.879 575.8 200.142 575.685C197.264 572.031 194.301 568.492 191.564 564.717C194.719 559.423 194.942 553.221 193.895 547.323C242.286 528.991 284.172 494.282 336.51 486.259C338.31 485.96 339.318 483.776 338.87 482.174C335.219 473.476 282.756 495.92 274.914 499.985C251.784 511.043 230.118 524.825 207.639 536.986C202.951 539.472 197.795 540.808 192.67 542.101C184.794 516.291 171.469 492.633 161.253 467.749C161.916 466.601 162.48 465.397 162.961 464.159C162.622 477.843 175.952 477.651 177.793 464.67C177.033 471.437 182.159 485.929 189.556 476.42C191.29 474.031 191.907 470.972 192.2 467.886C192.58 470.02 193.011 472.143 193.49 474.26C195.389 478.453 200.573 473.354 201.777 471.168C202.443 471.045 203.069 470.761 203.598 470.339C216.679 472.154 232.086 472.05 241.684 461.739C257.964 467.974 275.981 462.388 292.446 459.898C325.951 456.052 359.588 450.19 393.393 450.638C408.486 451.513 426.292 453.945 435.838 466.803C448.083 485.337 441.162 510.369 427.654 526.413C395.159 567.489 283.619 585.349 231.323 591.467ZM232.236 606.263C232.827 606.104 233.424 605.96 234.016 605.823C243.5 613.706 288.169 634.178 284.771 646.407C283.571 647.928 280.696 648.274 278.879 648.766C275.715 649.626 272.517 650.354 269.292 650.946C258.863 652.84 248.061 653.171 237.646 651.01C233.813 650.428 230.354 648.797 226.864 647.219C215.588 642.265 203.166 636.793 191.944 631.881C177.686 626.238 152.678 615.116 162.963 596.35C172.708 607.293 185.076 606.336 191.308 592.736C193.456 588.607 195.331 583.041 200.378 581.372C203.041 579.575 206.444 579.202 208.669 581.204C208.829 580.955 208.973 580.605 209.052 580.296C211.56 583.859 213.723 587.612 216.661 590.868C215.652 590.923 205.147 598.684 208.248 598.688C211.978 596.77 215.682 595.172 219.71 594.139C222.629 597.07 225.838 599.796 229.164 602.316C225.934 604.446 223.033 607.054 220.698 609.884C220.497 610.133 220.744 610.456 221.044 610.321C224.668 608.71 228.394 607.293 232.236 606.263ZM280.317 659.14C244.038 675.41 205.63 657.293 174.692 637.978C167.552 633.997 158.159 628.354 159.604 618.983C164.863 626.665 173.533 631.039 181.855 634.832C195.834 641.141 209.907 647.248 223.923 653.481C225.246 657.864 231.576 658.032 235.402 659.005C252.431 662.303 270.736 660.664 286.763 654.089C285.836 656.832 282.801 658.09 280.317 659.14ZM135.571 595.788C134.676 595.903 133.778 596.007 132.883 596.108C132.975 594.924 132.26 593.739 131.11 593.372C131.626 590.861 131.818 588.267 131.541 585.72C133.04 589.586 137.878 588.412 140.95 587.298C145.339 586.106 149.703 584.826 154.041 583.459C155.753 586.632 157.566 589.758 159.794 592.632C151.684 593.352 143.65 594.782 135.571 595.788ZM132.001 583.627C131.786 584.082 131.478 584.562 131.472 585.108C131.256 583.224 130.821 581.371 130.175 579.589L132.001 583.627ZM126.884 573.541C122.894 568.351 115.52 564.107 108.705 565.553C108.267 565.648 108.256 566.351 108.705 566.439C117.86 567.681 125.902 574.932 126.219 584.307C126.941 588.55 123.985 592.716 124.981 596.787L124.389 596.825C124.329 597.071 124.255 597.314 124.166 597.552C125.156 597.716 125.447 599.305 124.28 599.587C123.574 599.752 122.855 599.85 122.131 599.88C118.398 598.874 114.46 598.642 110.891 597.154C107.36 595.596 108.243 591.219 106.997 588.187C106.083 584.69 105.033 581.208 103.709 577.853C103.614 577.584 103.247 577.644 103.216 577.917C102.283 584.61 102.313 591.416 102.539 598.164C101.314 598.288 100.096 598.427 98.874 598.578C98.9528 596.693 93.2897 573.735 90.3068 579.626C91.8089 586.104 91.9903 592.871 92.1504 599.537C83.2923 600.994 74.5636 603.164 66.0711 606.119C60.0878 607.929 52.9707 613.286 47.1609 608.443C42.6611 604.729 41.1443 598.248 41.5699 592.733C47.421 560.102 93.6326 556.291 120.913 558.703C123.492 564.639 126.112 570.557 128.773 576.456C128.221 575.437 127.589 574.462 126.884 573.541ZM33.8417 592.097C33.3414 584.687 34.5901 575.464 40.0891 569.942C52.6732 559.319 70.2947 555.977 86.0205 552.131C93.3521 550.689 100.77 549.727 108.227 549.251C110.871 549.043 114.232 549.641 116.099 547.481C117.061 549.755 118.036 552.027 119.012 554.299C87.704 550.204 22.3862 564.43 40.6774 607.249C36.8046 603.06 34.2379 597.959 33.8417 592.097ZM189.381 567.604C190.822 571.198 192.584 574.619 194.887 577.749C192.27 579.458 190.134 581.985 188.629 584.701C178.98 609.904 168.661 596.404 155.839 582.88C166.689 578.792 181.061 575.729 189.381 567.604ZM28.775 586.969C3.68681 562.223 -1.18248 520.999 8.08651 488.594C8.91096 476.579 13.1199 465.127 16.8913 453.75C28.8977 419.24 44.6875 386.038 63.6257 354.69C87.1224 361.134 110.576 367.749 134.128 373.981C137.371 374.685 140.618 376.074 143.948 376.277C145.138 377.033 146.333 377.868 147.571 378.601C145.767 387.421 147.431 396.425 147.851 405.299C148.234 412.284 147.479 419.125 146.552 426.037C145.515 436.092 141.248 468.794 149.799 474.782C152.696 476.178 155.287 472.043 156.536 473.179C157.69 472.365 158.712 471.378 159.567 470.253C162.868 480.913 168.265 490.802 171.597 501.472C176.032 517.152 190.594 542.534 187.36 557.492C184.859 566.728 173.917 568.72 166.02 571.739C156.895 574.909 147.667 577.818 138.289 580.181C133.71 570.48 129.334 560.688 125.04 550.859C105.414 505.51 88.0322 459.215 72.4985 412.368C72.2077 411.329 68.6351 400.063 67.9814 403.206C67.9281 402.883 67.5198 402.048 67.3651 402.762C69.9998 413.762 72.6719 424.759 75.5642 435.698C68.4603 434.705 60.8229 434.319 54.3234 437.794C53.9872 437.973 54.234 438.413 54.5649 438.359C62.2637 437.027 69.689 439.544 77.0836 441.35C87.4679 476.643 100.867 511.039 115.049 545.005C110.663 543.608 105.571 545.153 100.993 545.264C86.5741 546.751 72.3197 549.901 58.6991 554.799C41.5779 560.342 29.4714 567.569 28.7763 586.969M14.9636 329.433C10.7479 324.9 7.43683 319.113 8.07584 312.972C10.6079 309.599 11.447 305.202 12.9211 301.304C18.6869 284.998 24.0378 268.567 30.3131 252.437C43.6603 256.535 56.7927 261.451 69.1794 267.908C71.4563 269.068 73.7104 270.273 75.9404 271.522C78.2736 272.828 80.819 275.096 83.6178 274.446C80.5589 278.77 74.2608 283.269 73.1962 288.265C72.9668 289.847 74.09 291.315 75.8136 290.961C102.807 310.105 130.682 328.844 156.197 350.167C175.303 365.269 189.971 377.517 196.524 402.021C200.941 417.894 200.954 434.483 200.305 450.803C200.178 453.976 200.174 457.223 199.918 460.417C200.301 462.806 199.572 467.669 196.883 467.755C196.941 468.32 197.132 468.863 197.44 469.34C197.355 469.454 197.266 469.565 197.174 469.674C197.04 469.021 196.909 468.372 196.787 467.718C194.692 458.458 194.412 447.714 194.762 437.855C194.908 435.028 190.566 435.095 190.323 437.855L188.364 460.211C187.579 465.04 188.814 471.356 184.948 475.027C181.017 471.4 182.318 464.245 182.508 459.565C182.817 451.931 183.149 444.299 183.433 436.664C183.521 434.244 179.508 433.621 179.052 436.081C177.763 443.094 176.367 450.088 174.864 457.059C173.958 459.754 173.335 471.847 168.805 469.747C166.106 467.907 168.053 457.115 167.696 453.542C167.865 446.469 167.963 439.405 168.484 432.349C168.696 429.503 164.053 428.897 163.417 431.677C162.375 436.171 161.402 440.68 160.498 445.203C158.53 452.839 159.245 463.189 152.143 468.264C149.36 448.43 153.363 428.736 153.925 408.973C153.589 402.569 152.488 396.23 151.516 389.904C150.442 382.908 149.815 375.293 152.331 368.547C151.642 365.526 148.94 373.698 148.686 374.378C146.65 370.373 141.693 370.064 137.771 368.817C129.057 365.999 120.129 363.877 111.313 361.373C87.9295 354.889 64.5182 348.506 41.1016 342.136C31.7472 339.552 21.8993 336.493 14.9636 329.433ZM249.12 434.927C245.893 417.467 245.983 399.773 247.361 382.121C248.876 354.744 250.348 327.36 251.922 299.986C258.755 349.532 266.04 399.02 271.61 448.724C272.006 452.183 271.945 455.843 273.693 458.929C264.031 460.222 253.732 461.524 244.336 458.243C248.46 451.126 249.914 443.023 249.12 434.927ZM297.943 311.942C305.248 358.899 301.08 406.681 308.167 453.585C298.336 454.686 288.581 456.314 278.854 458.105C279.918 452.31 277.898 446.328 277.55 440.493C272.267 398.874 266.434 357.284 258.704 316.03C256.808 306.158 254.893 296.324 252.695 286.506C253.028 280.56 253.319 274.614 253.511 268.665C264.236 261.932 276.332 257.574 288.842 255.377C292.221 274.18 295.599 292.97 297.943 311.942ZM213.378 164.383C212.95 163.649 212.542 162.904 212.154 162.148C213.474 162.199 214.76 162.245 216.061 162.46C216.002 164.551 216.12 166.657 216.142 168.764C215.493 167.223 214.22 165.815 213.378 164.383ZM434.009 458.65C402.808 435.997 351.559 450.43 315.413 452.758C308.523 407.644 311.335 361.793 304.913 316.606C298.996 271.462 292.76 225.689 277.902 182.435C271.771 165.711 261.164 160.745 243.701 160.879C234.839 160.533 225.468 159.116 216.855 159.317C214.966 159.348 212.993 159.597 211.288 160.358C208.893 154.967 207.593 149.18 206.936 143.349C206.932 143.27 206.901 143.196 206.848 143.138C206.794 143.08 206.722 143.043 206.644 143.033C206.567 143.023 206.488 143.041 206.422 143.083C206.355 143.126 206.306 143.19 206.283 143.265C204.257 148.342 204.041 153.884 205.143 159.2C205.94 163.01 210.686 178.001 216.199 172.135C216.636 184.435 213.929 199.123 201.861 205.505C180.774 214.684 151.626 206.327 139.411 186.844C137.051 182.95 135.015 178.808 132.4 175.07C150.614 169.922 160.837 148.133 156.546 131.541C153.894 144.445 149.06 158.864 137.02 166.092C93.175 165.994 56.722 185.932 36.1243 224.332C32.1131 229.896 28.3846 235.659 24.9529 241.598C23.1146 245.541 17.733 251.027 22.3008 254.835C17.0247 268.894 12.3435 283.148 7.39681 297.318C6.03741 302.039 2.9304 306.991 3.55074 311.955C2.87971 315.014 2.91039 318.631 4.44722 321.573C5.90401 326.815 9.1751 333.867 14.5994 336.092C19.2018 340.288 25.021 343.179 31.0909 345.356C14.9035 387.592 8.74153 433.143 3.25591 477.77C-2.12031 516.81 -4.89514 564.299 28.7883 592.514C29.442 600.587 34.2379 610.874 43.723 610.96C50.2919 617.401 58.2989 613.867 65.6108 610.719C77.9534 606.155 90.8964 603.626 103.758 602.214C105.137 603.292 107.381 603.113 108.61 601.858C116.401 600.065 127.2 607.326 128.773 600.748C138.82 599.776 148.756 597.952 158.792 596.889C154.561 602.366 154.867 610.445 158.053 616.365C149.939 632.298 168.837 641.525 180.391 648.062C195.99 657.08 212.28 665.638 230.121 669.376C245.805 672.669 262.235 671.67 277.369 666.409C285.321 664.413 296.427 657.862 291.709 648.631C297.69 631.066 255.686 612.865 243.332 604.069C248.381 603.44 248.567 592.975 235.432 598.989C233.848 597.928 232.284 596.838 230.74 595.721C283.87 589.623 385.338 572.849 423.789 536.588C444.914 517.944 457.102 480.23 434.009 458.65Z" fill="black"/>
<path fill-rule="evenodd" clip-rule="evenodd" d="M173.657 24.9436C224.36 22.4542 247.242 58.1027 248.721 74.0246C249.748 85.0786 243.209 97.8175 243.209 107.695C243.209 112.736 249.39 123.559 246.512 130.906C240.107 147.261 226.545 165.411 209.264 165.411C191.983 165.411 169.492 170.184 150.396 142.882C148.605 140.32 125.942 125.76 123.741 111.925C118.256 77.4638 137.477 26.7179 173.657 24.9436Z" fill="white"/>
<path fill-rule="evenodd" clip-rule="evenodd" d="M171.266 2.75842C173.079 0.686635 176.139 -0.141813 178.86 0.0196071C182.81 0.253066 186.246 2.68771 190.176 2.8678C194.297 3.05857 198.275 1.63247 202.407 2.29416C204.939 2.70105 207.448 3.87368 209.071 5.85074C214.691 4.24455 220.793 6.37236 224.372 11.0189C228.788 10.3345 233.592 13.2547 234.943 17.5023C240.553 17.6838 245.848 22.1822 246.473 27.8212C248.716 28.4136 250.662 29.9557 251.856 31.9968C253.245 34.3621 253.476 37.0742 253.225 39.741C255.864 41.087 257.206 43.9793 257.557 47.0382C259.969 48.8365 261.016 52.0676 260.524 55.1159C262.37 56.1565 263.324 58.5738 263.314 60.7323C263.304 62.7467 262.769 64.5303 263.521 66.474C264.192 68.2056 264.432 69.6491 264.064 71.4621L264.027 71.6382C263.961 71.9343 263.907 72.2171 263.857 72.4973C264.356 72.9349 264.779 73.4832 265.097 74.1208C266.253 76.4527 266.081 79.1128 265.198 81.4768C265.585 82.9829 265.536 84.5731 264.965 86.0206C266.066 87.5889 266.585 89.4931 266.431 91.4035C266.245 93.5403 265.282 95.5347 263.724 97.0091C264.128 100.003 262.91 103.238 260.705 105.346C261.038 107.19 260.706 109.093 259.767 110.715C259.116 111.854 258.174 112.8 257.038 113.457C257.073 114.489 256.927 115.52 256.605 116.502C256.146 117.922 255.367 119.218 254.328 120.29C254.943 124.217 252.587 128.575 248.442 129.677C248.094 129.769 247.762 129.812 247.445 129.819C247.037 133.603 246.128 137.316 244.74 140.859C241.201 149.868 234.766 157.746 226.372 162.659C222.22 165.088 217.558 166.752 212.797 167.446C209.372 167.947 206.077 167.823 202.638 167.483C198.322 167.052 193.986 166.408 189.792 165.298L189.117 165.119C187.378 164.654 185.545 164.117 184.038 163.181C182.352 162.132 181.476 160.515 181.087 158.61C180.871 157.551 181.544 156.412 182.706 156.389H182.78C183.034 156.394 183.286 156.385 183.542 156.369L183.734 156.356H183.744C183.757 156.353 183.764 156.353 183.777 156.353C183.89 156.336 184.001 156.302 184.112 156.286C185.39 156.072 186.508 156.284 187.708 156.683L187.858 156.733C189.879 157.428 191.883 158.073 193.97 158.55C196.13 159.038 198.31 159.435 200.503 159.74L200.721 159.767L200.787 159.776L200.821 159.78C200.827 159.78 200.834 159.78 200.841 159.783L201.486 159.863C201.996 159.923 202.504 159.976 203.013 160.031C203.949 160.124 204.886 160.198 205.822 160.251C221.989 161.16 235.569 148.449 239.666 133.21C241.152 127.695 241.249 122.193 240.81 116.688C240.66 116.26 240.586 115.809 240.59 115.355C240.59 115.102 240.603 114.851 240.619 114.597C240.075 109.272 239.128 103.944 238.536 98.5993C237.843 92.356 237.458 86.0766 237.599 79.7919C237.669 76.6889 238.001 73.6166 238.436 70.5429L238.592 69.4396C236.63 69.0559 234.813 68.1345 233.345 66.7782C230.187 68.5992 226.101 68.7606 222.985 66.8369C219.492 69.0248 214.614 69.2235 211.097 67.085C208.97 68.6005 206.293 69.2542 203.664 68.6779C202.439 68.398 201.291 67.8544 200.298 67.085C199.582 67.2132 198.854 67.2597 198.127 67.2238L197.978 67.3078C196.308 68.1856 194.459 68.7646 192.556 68.6992C191.117 68.6539 189.695 68.3667 188.351 67.8494C186.916 68.7139 185.344 69.3049 183.665 69.517C181.21 69.8252 178.561 69.2836 176.52 67.8935C172.79 70.0146 168.202 70.3415 164.174 68.9167C163.34 70.3148 162.214 71.5165 160.873 72.4399C161.113 73.2964 161.189 74.2089 161.106 75.0867C160.971 76.5315 160.608 77.8255 160.015 78.9888C160.64 80.2881 160.829 81.8823 160.479 83.4832C159.98 85.7658 158.65 87.7522 156.928 89.2983C156.848 91.1248 156.311 92.9021 155.366 94.467C154.421 96.032 153.098 97.3345 151.518 98.2551C151.359 98.347 151.195 98.429 151.026 98.5006C150.882 98.6968 150.709 98.87 150.514 99.0142C148.443 100.926 145.167 100.774 142.571 99.6946C142.521 99.6959 142.471 99.7013 142.42 99.7013C141.493 99.7253 140.862 99.3638 140.486 98.8328C140.107 98.852 139.729 98.8956 139.356 98.9635C137.918 99.2332 136.525 99.702 135.217 100.356C131.98 102.02 130.48 104.96 130.032 108.494C129.544 112.348 130.655 116.277 133.642 118.886C135.093 120.155 136.95 120.95 138.837 121.285C140.921 121.656 143.148 120.743 144.688 122.531C144.996 122.884 145.207 123.379 145.039 123.857C144.517 125.347 143.658 125.918 142.313 126.125C144.256 128.426 146.25 130.651 148.458 132.719C150.846 134.96 153.315 137.132 155.47 139.604C157.748 142.219 159.805 144.992 161.233 148.165C162.049 149.99 162.706 151.869 163.411 153.737L163.538 154.063C164.325 156.046 165.372 157.959 164.161 160.031C163.679 160.846 162.588 161.633 161.585 161.504C158.758 161.142 157.811 159.236 156.941 156.751C156.286 154.872 155.784 152.942 155.079 151.081C154.945 150.736 154.803 150.394 154.652 150.056C153.022 150.51 151.23 150.15 149.775 149.223C148.219 149.907 146.535 150.249 144.836 150.224C142.609 150.186 140.575 149.568 138.826 148.453C138.687 148.417 138.547 148.381 138.408 148.342C135.748 149.359 132.632 149.177 130.224 147.528C128.752 146.533 127.623 145.108 126.992 143.447C124.976 143.409 122.982 142.696 121.538 141.268C120.252 139.985 119.432 138.311 119.206 136.509C117.472 136.165 115.846 135.328 114.569 133.917C113.504 132.739 112.857 131.238 112.639 129.68C110.525 129.078 108.62 127.702 107.58 125.781C106.666 124.101 106.438 122.132 106.945 120.288L106.822 120.112C104.645 118.974 102.984 117.112 102.813 114.452C102.765 113.7 102.847 112.946 103.053 112.221C102.972 111.424 103.034 110.618 103.236 109.843C100.309 107.001 99.2487 102.435 100.838 98.6594C97.9774 95.5857 97.2223 90.7258 99.3194 87.0785C97.8813 85.3415 97.1423 83.1257 97.265 80.7617C97.4197 77.8081 98.7738 75.2294 100.396 72.8415C99.1927 71.5114 98.5497 69.6571 98.5977 67.8668C98.6644 65.2721 100.045 63.0375 101.775 61.1859C100.267 56.6167 101.952 51.6594 105.655 48.7658C104.906 47.5332 104.629 46.007 104.873 44.4609C105.301 41.7581 107.332 39.9171 109.522 38.4603C109.065 36.9715 109.185 35.3653 109.914 33.8245C110.887 31.77 112.724 30.4667 114.641 29.3647C115.136 24.8089 120.233 20.9162 124.509 23.2681C123.448 19.8783 126.503 16.2163 130.016 15.8295C131.736 10.6253 137.667 7.34488 142.999 8.63758C145.724 4.91557 150.799 3.4828 155.108 5.07966C159.845 1.45505 165.723 0.917425 171.266 2.75842ZM137.523 104.947C140.851 104.767 143.347 107.479 145.1 109.96C146.745 112.289 142.524 114.747 141.293 112.181C140.851 111.266 140.35 110.298 139.677 109.496C139.564 109.655 139.464 109.817 139.365 109.985L139.265 110.154C139.192 110.278 139.114 110.404 139.051 110.535C139.058 110.558 138.958 110.866 138.954 110.879C138.679 111.71 138.082 112.245 137.265 112.532C136.211 112.9 135.215 112.108 134.876 111.179C134.338 109.696 135.588 108.403 136.89 107.816C135.612 107.608 134.354 108.043 133.431 109.025C133.304 109.162 133.09 109.052 133.083 108.881C132.976 106.553 135.415 105.06 137.523 104.947Z" fill="black"/>
<path fill-rule="evenodd" clip-rule="evenodd" d="M218.7 139.684C216.236 140.398 213.59 140.461 211.078 139.726C208.8 139.057 206.46 137.588 204.783 135.643C203.294 133.917 202.33 131.817 202.367 129.577C202.368 129.344 202.453 129.119 202.604 128.942C202.758 128.764 202.965 128.64 203.194 128.588C203.425 128.532 203.667 128.553 203.885 128.648C204.086 128.737 204.247 128.896 204.34 129.094C204.598 129.433 204.855 129.766 205.112 130.09C207.184 132.644 209.191 134.553 212.307 135.239C213.95 135.593 215.661 135.468 217.235 134.879C218.893 134.272 220.393 133.205 221.567 131.839C222.098 131.221 222.725 130.97 223.337 130.965C224.032 130.961 224.718 131.282 225.235 131.797C225.744 132.304 226.084 132.993 226.114 133.712C226.142 134.344 225.936 135.003 225.387 135.591C223.567 137.532 221.256 138.946 218.7 139.684ZM218.624 107.686C221.15 109.218 224.999 112.794 222.282 116.596C219.083 119.947 214.478 116.105 212.208 114.367C210.103 113.019 207.739 116.484 209.691 118.057C226.092 130.18 232.746 108.087 219.902 105.883C218.488 105.641 217.962 107.211 218.624 107.686ZM194.994 100.939C194.181 100.42 193.226 100.243 192.168 100.723C191.341 101.099 189.89 102.351 188.881 103.997C188.19 105.123 187.7 106.445 187.802 107.82C187.816 107.956 187.797 108.092 187.748 108.219C187.7 108.346 187.621 108.459 187.52 108.55C187.35 108.701 187.137 108.796 186.911 108.821C186.699 108.848 186.461 108.824 186.268 108.762C185.901 108.649 185.706 108.41 185.633 108.217C184.926 106.341 185.231 104.249 186.022 102.361C187.092 99.8147 189.033 97.6816 190.306 96.9932C192.483 95.8152 195.051 95.7619 197.231 96.9612C199.087 97.9817 200.247 99.6306 201.401 101.31C201.647 101.668 201.891 102.023 202.142 102.371C202.646 103.068 202.697 103.761 202.502 104.355C202.284 105.012 201.733 105.567 201.044 105.858C200.406 106.126 199.666 106.163 199.011 105.889C198.457 105.655 197.95 105.2 197.628 104.431C197.087 103.133 196.186 101.7 194.994 100.939ZM236.228 103.826C235.672 104.116 235.237 104.204 234.62 104.018C234.265 103.911 233.942 103.718 233.679 103.457C233.415 103.2 233.232 102.871 233.154 102.511C232.974 101.621 232.487 100.789 231.792 100.246C231.491 100.002 231.142 99.8251 230.767 99.7266C230.392 99.6282 230.001 99.6105 229.619 99.6746C228.723 99.8241 227.867 100.399 227.279 101.075C227.083 101.302 226.928 101.56 226.773 101.814C226.484 102.293 226.203 102.738 225.802 103.088C225.634 103.231 225.421 103.311 225.201 103.314C225.11 103.313 225.019 103.299 224.933 103.273C224.04 102.377 223.869 101.7 223.897 101.026C223.928 100.32 224.207 99.6053 224.656 98.9396C225.713 97.3747 227.718 96.0927 229.072 95.8019C230.925 95.4043 232.766 95.8819 234.242 96.9158C235.761 97.9791 236.886 99.6306 237.236 101.492C237.324 101.945 237.282 102.413 237.114 102.843C236.947 103.267 236.632 103.616 236.228 103.826ZM199.081 84.2637C197.969 85.3469 196.652 85.5137 195.321 85.6631C194.58 85.7472 193.989 85.8139 193.408 85.9446C191.811 86.3048 190.231 86.8477 188.79 87.6295C187.284 88.4459 185.642 89.4305 184.461 90.6925C184.181 90.9926 183.916 91.3075 183.65 91.6236C183.409 91.9105 183.177 92.1879 182.931 92.4561C182.648 92.7629 182.382 93.0844 182.115 93.4046C181.951 93.6754 181.919 93.7421 181.885 93.8115C181.829 93.9278 181.771 94.043 181.711 94.157C181.616 94.338 181.513 94.5147 181.402 94.6866C181.217 94.9975 181.118 95.0828 181.032 95.1215C180.905 95.1838 180.764 95.2105 180.623 95.1989C180.491 95.1774 180.368 95.1175 180.27 95.0268C179.699 94.5452 179.531 93.7555 179.548 92.915C179.573 91.6423 180.044 90.2322 180.478 89.3651C181.486 87.3507 182.885 85.2562 184.567 83.7541C186.485 82.0372 188.585 80.7378 190.996 79.8426C192.494 79.2863 194.229 78.7754 195.862 78.8408C197.037 78.8875 198.158 79.2356 199.085 80.1068C199.654 80.6417 199.927 81.4021 199.927 82.1626C199.927 82.9376 199.643 83.7167 199.081 84.2637ZM238.49 94.173C238.426 94.2812 238.329 94.3665 238.213 94.4171C238.127 94.4539 238.035 94.4717 237.942 94.4692C237.849 94.4667 237.757 94.444 237.674 94.4026C237.59 94.3612 237.517 94.3022 237.458 94.2296C237.4 94.157 237.358 94.0726 237.335 93.9823C236.596 90.7432 235.162 88.3339 232.102 86.7797C230.597 86.0153 228.865 85.5297 227.226 85.1428C226.749 85.0294 226.247 84.9574 225.74 84.8827C224.152 84.6519 222.553 84.3864 221.516 83.1044C220.893 82.332 220.63 81.3448 220.778 80.4416C220.849 79.9942 221.026 79.5703 221.294 79.2054C221.562 78.8405 221.914 78.5453 222.32 78.3445C224.572 77.1812 227.371 78.3218 229.646 79.2943L230.142 79.5051C232.366 80.443 234.395 81.6796 236.062 83.4499C237.386 84.8533 238.612 86.9291 239.105 89.0649C239.516 90.8406 239.419 92.6549 238.49 94.173Z" fill="black"/>
<path d="M288 87C288 61.0426 309.043 40 335 40H412C437.957 40 459 61.0426 459 87V98C459 123.957 437.957 145 412 145H288V87Z" fill="black"/>
<path d="M278 77C278 51.0426 299.043 30 325 30H402C427.957 30 449 51.0426 449 77V88C449 113.957 427.957 135 402 135H278V77Z" fill="white"/>
<g filter="url(#filter0_d_25_415)">
<path d="M295.5 92.123L294.27 72.0938H296.525L297.305 87.3516C297.314 87.625 297.314 87.8665 297.305 88.0762C297.305 88.2858 297.296 88.5456 297.277 88.8555H297.4C297.482 88.5456 297.56 88.2858 297.633 88.0762C297.715 87.8665 297.815 87.625 297.934 87.3516L304.428 72.0938H306.82L308.037 87.3652C308.064 87.6296 308.074 87.8665 308.064 88.0762C308.055 88.2858 308.046 88.5456 308.037 88.8555H308.146C308.229 88.5456 308.306 88.2858 308.379 88.0762C308.461 87.8665 308.557 87.6296 308.666 87.3652L314.695 72.0938H316.979L308.68 92.123H306.396L305.193 76.7148C305.175 76.4596 305.161 76.1953 305.152 75.9219C305.143 75.6484 305.143 75.3568 305.152 75.0469H305.057C304.956 75.3568 304.856 75.6484 304.756 75.9219C304.656 76.1862 304.546 76.4505 304.428 76.7148L297.797 92.123H295.5ZM315.789 85.3145L315.871 84.877C316.236 82.7988 317.092 81.1081 318.441 79.8047C319.79 78.4922 321.39 77.8359 323.24 77.8359C325.081 77.8359 326.389 78.4466 327.164 79.668C327.939 80.8802 328.139 82.5436 327.766 84.6582L327.602 85.5605H317.074L317.389 83.7695H325.701L325.756 83.5098C325.938 82.4798 325.811 81.5866 325.373 80.8301C324.936 80.0645 324.138 79.6816 322.98 79.6816C321.659 79.6816 320.579 80.1784 319.74 81.1719C318.911 82.1562 318.368 83.3913 318.113 84.877L318.031 85.3145C317.767 86.8092 317.895 88.0534 318.414 89.0469C318.943 90.0312 319.913 90.5234 321.326 90.5234C322.229 90.5234 323.035 90.332 323.746 89.9492C324.457 89.5664 325.054 89.1016 325.537 88.5547L326.754 89.7441C326.225 90.3913 325.464 90.9928 324.471 91.5488C323.477 92.0957 322.324 92.3691 321.012 92.3691C318.934 92.3691 317.452 91.7174 316.568 90.4141C315.684 89.1107 315.424 87.4108 315.789 85.3145ZM329.406 92L333.057 71.3418H335.258L331.607 92H329.406ZM335.805 85.3145L335.887 84.877C336.26 82.7715 337.117 81.0716 338.457 79.7773C339.797 78.4831 341.433 77.8359 343.365 77.8359C345.179 77.8359 346.469 78.319 347.234 79.2852C348 80.2513 348.269 81.3815 348.041 82.6758L348.014 82.7852H345.854L345.881 82.6758C346.027 81.8372 345.876 81.1309 345.43 80.5566C344.983 79.9824 344.186 79.6953 343.037 79.6953C341.706 79.6953 340.622 80.1784 339.783 81.1445C338.954 82.1016 338.407 83.3457 338.143 84.877L338.061 85.3145C337.796 86.8092 337.906 88.0534 338.389 89.0469C338.881 90.0312 339.797 90.5234 341.137 90.5234C342.285 90.5234 343.183 90.2318 343.83 89.6484C344.486 89.0651 344.892 88.3451 345.047 87.4883L345.061 87.3789H347.207L347.193 87.4883C346.965 88.7826 346.291 89.9219 345.17 90.9062C344.058 91.8815 342.6 92.3691 340.795 92.3691C338.872 92.3691 337.464 91.722 336.57 90.4277C335.686 89.1243 335.431 87.4199 335.805 85.3145ZM349.477 85.3145L349.559 84.877C349.923 82.7988 350.803 81.1081 352.197 79.8047C353.592 78.4922 355.26 77.8359 357.201 77.8359C359.152 77.8359 360.592 78.4922 361.521 79.8047C362.451 81.1081 362.734 82.7988 362.369 84.877L362.287 85.3145C361.923 87.4017 361.043 89.1016 359.648 90.4141C358.254 91.7174 356.586 92.3691 354.645 92.3691C352.694 92.3691 351.254 91.7174 350.324 90.4141C349.395 89.1016 349.112 87.4017 349.477 85.3145ZM351.814 84.8906L351.732 85.3145C351.468 86.791 351.6 88.0306 352.129 89.0332C352.658 90.0267 353.605 90.5234 354.973 90.5234C356.34 90.5234 357.456 90.0267 358.322 89.0332C359.197 88.0306 359.767 86.791 360.031 85.3145L360.113 84.8906C360.368 83.4049 360.232 82.1699 359.703 81.1855C359.184 80.1921 358.24 79.6953 356.873 79.6953C355.506 79.6953 354.385 80.1921 353.51 81.1855C352.635 82.1699 352.07 83.4049 351.814 84.8906ZM364.064 92L366.484 78.2051H368.494L368.262 80.0645H368.316C368.927 79.4082 369.615 78.8887 370.381 78.5059C371.146 78.123 371.967 77.9316 372.842 77.9316C373.771 77.9316 374.537 78.123 375.139 78.5059C375.74 78.8887 376.132 79.4902 376.314 80.3105H376.369C377.062 79.4993 377.805 78.9023 378.598 78.5195C379.391 78.1276 380.252 77.9316 381.182 77.9316C382.558 77.9316 383.574 78.3236 384.23 79.1074C384.887 79.8913 385.055 81.1992 384.736 83.0312L383.15 92H380.936L382.521 83.0039C382.722 81.8464 382.622 81.026 382.221 80.543C381.829 80.0599 381.182 79.8184 380.279 79.8184C379.505 79.8184 378.789 80.0417 378.133 80.4883C377.477 80.9349 376.911 81.5091 376.438 82.2109L374.701 92H372.5L374.086 83.0039C374.286 81.8464 374.186 81.026 373.785 80.543C373.384 80.0599 372.737 79.8184 371.844 79.8184C371.069 79.8184 370.354 80.0417 369.697 80.4883C369.041 80.9349 368.471 81.5091 367.988 82.2109L366.266 92H364.064ZM387.129 85.3145L387.211 84.877C387.576 82.7988 388.432 81.1081 389.781 79.8047C391.13 78.4922 392.73 77.8359 394.58 77.8359C396.421 77.8359 397.729 78.4466 398.504 79.668C399.279 80.8802 399.479 82.5436 399.105 84.6582L398.941 85.5605H388.414L388.729 83.7695H397.041L397.096 83.5098C397.278 82.4798 397.15 81.5866 396.713 80.8301C396.275 80.0645 395.478 79.6816 394.32 79.6816C392.999 79.6816 391.919 80.1784 391.08 81.1719C390.251 82.1562 389.708 83.3913 389.453 84.877L389.371 85.3145C389.107 86.8092 389.234 88.0534 389.754 89.0469C390.283 90.0312 391.253 90.5234 392.666 90.5234C393.568 90.5234 394.375 90.332 395.086 89.9492C395.797 89.5664 396.394 89.1016 396.877 88.5547L398.094 89.7441C397.565 90.3913 396.804 90.9928 395.811 91.5488C394.817 92.0957 393.664 92.3691 392.352 92.3691C390.273 92.3691 388.792 91.7174 387.908 90.4141C387.024 89.1107 386.764 87.4108 387.129 85.3145ZM401.525 90.8105C401.598 90.4004 401.79 90.0495 402.1 89.7578C402.419 89.457 402.82 89.3066 403.303 89.3066C403.795 89.3066 404.146 89.457 404.355 89.7578C404.565 90.0495 404.633 90.4004 404.561 90.8105C404.488 91.2207 404.296 91.5716 403.986 91.8633C403.676 92.1549 403.275 92.3008 402.783 92.3008C402.291 92.3008 401.94 92.1549 401.73 91.8633C401.521 91.5716 401.452 91.2207 401.525 90.8105ZM402.838 86.4629L405.203 72.0938H407.5L404.779 86.4629H402.838ZM409.646 90.8105C409.719 90.4004 409.911 90.0495 410.221 89.7578C410.54 89.457 410.941 89.3066 411.424 89.3066C411.916 89.3066 412.267 89.457 412.477 89.7578C412.686 90.0495 412.755 90.4004 412.682 90.8105C412.609 91.2207 412.417 91.5716 412.107 91.8633C411.798 92.1549 411.396 92.3008 410.904 92.3008C410.412 92.3008 410.061 92.1549 409.852 91.8633C409.642 91.5716 409.574 91.2207 409.646 90.8105ZM410.959 86.4629L413.324 72.0938H415.621L412.9 86.4629H410.959ZM417.768 90.8105C417.84 90.4004 418.032 90.0495 418.342 89.7578C418.661 89.457 419.062 89.3066 419.545 89.3066C420.037 89.3066 420.388 89.457 420.598 89.7578C420.807 90.0495 420.876 90.4004 420.803 90.8105C420.73 91.2207 420.538 91.5716 420.229 91.8633C419.919 92.1549 419.518 92.3008 419.025 92.3008C418.533 92.3008 418.182 92.1549 417.973 91.8633C417.763 91.5716 417.695 91.2207 417.768 90.8105ZM419.08 86.4629L421.445 72.0938H423.742L421.021 86.4629H419.08Z" fill="black"/>
</g>
<defs>
<filter id="filter0_d_25_415" x="290.27" y="71.3418" width="137.473" height="29.0273" filterUnits="userSpaceOnUse" color-interpolation-filters="sRGB">
<feFlood flood-opacity="0" result="BackgroundImageFix"/>
<feColorMatrix in="SourceAlpha" type="matrix" values="0 0 0 0 0 0 0 0 0 0 0 0 0 0 0 0 0 0 127 0" result="hardAlpha"/>
<feOffset dy="4"/>
<feGaussianBlur stdDeviation="2"/>
<feComposite in2="hardAlpha" operator="out"/>
<feColorMatrix type="matrix" values="0 0 0 0 0 0 0 0 0 0 0 0 0 0 0 0 0 0 0.25 0"/>
<feBlend mode="normal" in2="BackgroundImageFix" result="effect1_dropShadow_25_415"/>
<feBlend mode="normal" in="SourceGraphic" in2="effect1_dropShadow_25_415" result="shape"/>
</filter>
</defs>
</svg>
